<svg version="1.1" xmlns="http://www.w3.org/2000/svg" viewBox="0 0 4720.390676386996 2746.3291040306967" width="4720.390676386996" height="2746.3291040306967">
  <!-- svg-source:excalidraw -->
  
  <defs>
    <style class="style-fonts">
      @font-face {
        font-family: "Virgil";
        src: url("https://excalidraw.com/Virgil.woff2");
      }
      @font-face {
        font-family: "Cascadia";
        src: url("https://excalidraw.com/Cascadia.woff2");
      }
    </style>
    
  </defs>
  <rect x="0" y="0" width="4720.390676386996" height="2746.3291040306967" fill="#ffffff"></rect><g stroke-linecap="round" transform="translate(10 407.7613838323307) rotate(0 44.5 40.5)"><path d="M19.3 1.66 L72.12 -1.34 L82.77 3.83 L86.85 10.59 L89.86 20.54 L89.33 67.37 L83.48 77.64 L77.92 77.91 L69.42 82.13 L14.08 79.22 L6.49 75.25 L-0.37 65.5 L-1.36 15.11 L6.81 3.32 L10.7 1.28 L20.72 -0.41" stroke="none" stroke-width="0" fill="#b2f2bb"></path><path d="M20.25 0 M20.25 0 C34.9 -2.33, 45.89 -2.25, 68.75 0 M20.25 0 C38.88 -0.01, 58.62 -1.08, 68.75 0 M68.75 0 C82.79 1.75, 87.61 7.82, 89 20.25 M68.75 0 C84.46 1.09, 88.15 5.51, 89 20.25 M89 20.25 C89.34 27.87, 89.13 38.32, 89 60.75 M89 20.25 C88.91 33, 88.11 46.42, 89 60.75 M89 60.75 C88.76 74.99, 84.2 79.27, 68.75 81 M89 60.75 C90.44 74.75, 83.42 81.35, 68.75 81 M68.75 81 C53.44 79.7, 32.69 78.74, 20.25 81 M68.75 81 C56.24 80.56, 44.05 81.24, 20.25 81 M20.25 81 C5.61 81.54, 1.88 73.98, 0 60.75 M20.25 81 C4.92 79.22, 1.87 72.07, 0 60.75 M0 60.75 C1.24 50.5, -0.64 41.15, 0 20.25 M0 60.75 C-0.63 46.37, 0.28 32.52, 0 20.25 M0 20.25 C-1.24 6.2, 6.59 0.33, 20.25 0 M0 20.25 C-1.04 5.32, 5.35 1.36, 20.25 0" stroke="#1e1e1e" stroke-width="1" fill="none"></path></g><g transform="translate(40.5 432.1613838323308) rotate(0 14 16.09999999999991)"><text x="14" y="0" font-family="Helvetica, Segoe UI Emoji" font-size="28px" fill="#1e1e1e" text-anchor="middle" style="white-space: pre;" direction="ltr" dominant-baseline="text-before-edge">UI</text></g><g transform="translate(258.3537002456287 354.8425583147148) rotate(0 3.8896484375 16.09999999999991)"><text x="0" y="0" font-family="Helvetica, Segoe UI Emoji" font-size="28px" fill="#1e1e1e" text-anchor="start" style="white-space: pre;" direction="ltr" dominant-baseline="text-before-edge">/</text></g><g stroke-linecap="round" transform="translate(182.43877477353544 396.38351846811497) rotate(0 81 48)"><path d="M22.19 -0.53 L137.3 -0.87 L153.14 2.07 L156.95 11.09 L162.1 17.26 L161.12 70.83 L158.8 85.47 L153.1 92.23 L139.09 95.99 L24.55 95.77 L9.47 91.01 L4.27 88.32 L1.76 78.34 L-1.2 16.74 L6.59 6.26 L14.93 2.91 L24.68 0.97" stroke="none" stroke-width="0" fill="#b2f2bb"></path><path d="M24 0 M24 0 C68.53 1.88, 108.45 0.3, 138 0 M24 0 C50.06 0.21, 77.52 0.56, 138 0 M138 0 C153.58 1.79, 162.97 6.33, 162 24 M138 0 C152.73 -1.07, 161.92 6.24, 162 24 M162 24 C161.83 39.05, 161.51 51.21, 162 72 M162 24 C162.8 35.22, 161.79 46.83, 162 72 M162 72 C163.63 86.02, 152.63 96.6, 138 96 M162 72 C163.49 88.48, 152.02 96, 138 96 M138 96 C97.51 98.48, 54.57 97.1, 24 96 M138 96 C103.59 95.73, 70.22 96.84, 24 96 M24 96 C9.07 97.65, 0.81 88.02, 0 72 M24 96 C6.15 97.18, -0.27 88, 0 72 M0 72 C-0.17 58.99, -0.86 46.68, 0 24 M0 72 C0.34 60.67, 0.39 50.4, 0 24 M0 24 C-1.03 7.08, 8.61 0.11, 24 0 M0 24 C-1.13 10.04, 8.83 1.11, 24 0" stroke="#1e1e1e" stroke-width="1" fill="none"></path></g><g transform="translate(209.72197789853544 412.18351846811515) rotate(0 53.716796875 32.200000000000045)"><text x="53.716796875" y="0" font-family="Helvetica, Segoe UI Emoji" font-size="28px" fill="#1e1e1e" text-anchor="middle" style="white-space: pre;" direction="ltr" dominant-baseline="text-before-edge">Landing </text><text x="53.716796875" y="32.199999999999996" font-family="Helvetica, Segoe UI Emoji" font-size="28px" fill="#1e1e1e" text-anchor="middle" style="white-space: pre;" direction="ltr" dominant-baseline="text-before-edge">Page</text></g><g stroke-linecap="round"><g transform="translate(347.0722325539873 442.8185963036278) rotate(0 98.44135897290016 -2.8673548018743986)"><path d="M0.09 1.06 C32.68 0.08, 163.18 -3.8, 196.01 -4.96 M-1.32 0.58 C31.6 -0.85, 165.27 -5.91, 198.2 -6.8" stroke="#1e1e1e" stroke-width="1" fill="none"></path></g><g transform="translate(347.0722325539873 442.8185963036278) rotate(0 98.44135897290016 -2.8673548018743986)"><path d="M172.14 2.75 C180.56 0.67, 188.39 -3.73, 197.96 -8.04 M170.25 3.59 C178.85 1.41, 188.3 -2.83, 198.74 -6.86" stroke="#1e1e1e" stroke-width="1" fill="none"></path></g><g transform="translate(347.0722325539873 442.8185963036278) rotate(0 98.44135897290016 -2.8673548018743986)"><path d="M171.46 -17.76 C180.27 -12.92, 188.33 -10.41, 197.96 -8.04 M169.57 -16.92 C178.3 -12.74, 187.96 -10.62, 198.74 -6.86" stroke="#1e1e1e" stroke-width="1" fill="none"></path></g></g><mask></mask><g transform="translate(397.72868110181844 361.58405848646885) rotate(0 33.9013671875 23)"><text x="0" y="0" font-family="Helvetica, Segoe UI Emoji" font-size="20px" fill="#1e1e1e" text-anchor="start" style="white-space: pre;" direction="ltr" dominant-baseline="text-before-edge">Buscar </text><text x="0" y="23" font-family="Helvetica, Segoe UI Emoji" font-size="20px" fill="#1e1e1e" text-anchor="start" style="white-space: pre;" direction="ltr" dominant-baseline="text-before-edge">ahora</text></g><g stroke-linecap="round" transform="translate(558.7539352747926 370.8974956004847) rotate(0 98 69.5)"><path d="M30.88 -0.42 L162.12 -1.63 L177.33 1.78 L189.12 6.74 L192.29 18.39 L195.12 30.73 L194.1 113.96 L193.67 119.69 L186.5 132.68 L179.69 138.61 L163.58 137.34 L31.46 140.13 L16.83 136.38 L6.65 132.46 L5.1 127.85 L0.8 115.98 L1.11 23.92 L2.83 16.68 L9.98 7.4 L18.03 3.17 L31.18 1.72" stroke="none" stroke-width="0" fill="#b2f2bb"></path><path d="M32 0 M32 0 C80.06 -0.24, 124.9 1.13, 164 0 M32 0 C73.46 -1.45, 114.5 -1.49, 164 0 M164 0 C187.3 -1.23, 197 11.49, 196 32 M164 0 C187.19 -1.09, 196.94 11.24, 196 32 M196 32 C195.54 49.89, 194.27 66.67, 196 107 M196 32 C197.21 53.72, 197.62 76.04, 196 107 M196 107 C197.96 127.81, 185.53 139.31, 164 139 M196 107 C198.27 126.67, 185.75 138.2, 164 139 M164 139 C113.69 139.78, 67.6 141.38, 32 139 M164 139 C120.47 138.16, 79.22 139.29, 32 139 M32 139 C12.29 139.09, 1.15 129.86, 0 107 M32 139 C9.72 138.94, 0.14 127.49, 0 107 M0 107 C1.61 88.51, 1.4 67.01, 0 32 M0 107 C0.81 79.28, 1.66 51.82, 0 32 M0 32 C0.35 12.35, 11.91 0.65, 32 0 M0 32 C0.45 9.27, 11.55 -0.5, 32 0" stroke="#1e1e1e" stroke-width="1" fill="none"></path></g><g transform="translate(573.4922165247926 392.09749560048454) rotate(0 83.26171875 48.299999999999955)"><text x="83.26171875" y="0" font-family="Helvetica, Segoe UI Emoji" font-size="28px" fill="#1e1e1e" text-anchor="middle" style="white-space: pre;" direction="ltr" dominant-baseline="text-before-edge">Se muestran </text><text x="83.26171875" y="32.199999999999996" font-family="Helvetica, Segoe UI Emoji" font-size="28px" fill="#1e1e1e" text-anchor="middle" style="white-space: pre;" direction="ltr" dominant-baseline="text-before-edge">la lista de </text><text x="83.26171875" y="64.39999999999999" font-family="Helvetica, Segoe UI Emoji" font-size="28px" fill="#1e1e1e" text-anchor="middle" style="white-space: pre;" direction="ltr" dominant-baseline="text-before-edge">platillos</text></g><g transform="translate(622.8684524255141 341.50569920796465) rotate(0 36.1279296875 11.5)"><text x="0" y="0" font-family="Helvetica, Segoe UI Emoji" font-size="20px" fill="#1e1e1e" text-anchor="start" style="white-space: pre;" direction="ltr" dominant-baseline="text-before-edge">/platillos</text></g><g stroke-linecap="round"><g transform="translate(664.2895002433934 514.2308289338182) rotate(0 -2.2437941347211563 84.69756243779557)"><path d="M-0.85 -0.19 C-1.59 28.29, -3.93 142.4, -4.83 170.73 M0.9 -1.34 C0.11 26.8, -4.02 140.18, -5.39 168.9" stroke="#1e1e1e" stroke-width="1" fill="none"></path></g><g transform="translate(664.2895002433934 514.2308289338182) rotate(0 -2.2437941347211563 84.69756243779557)"><path d="M-14.8 141.54 C-11.21 146.88, -10.32 155.21, -7.09 167.53 M-14.2 140.57 C-11.74 151.71, -8.55 161, -5.5 169.71" stroke="#1e1e1e" stroke-width="1" fill="none"></path></g><g transform="translate(664.2895002433934 514.2308289338182) rotate(0 -2.2437941347211563 84.69756243779557)"><path d="M5.7 142.38 C3.85 147.35, -0.72 155.46, -7.09 167.53 M6.3 141.41 C1.19 152.04, -3.2 161.01, -5.5 169.71" stroke="#1e1e1e" stroke-width="1" fill="none"></path></g></g><mask></mask><g transform="translate(669.303530261026 565.7073858586675) rotate(0 63.3544921875 11.5)"><text x="0" y="0" font-family="Helvetica, Segoe UI Emoji" font-size="20px" fill="#1e1e1e" text-anchor="start" style="white-space: pre;" direction="ltr" dominant-baseline="text-before-edge">Click al platillo</text></g><g stroke-linecap="round" transform="translate(423.05690537573355 693.7556307990187) rotate(0 196.29373812284666 185.35482849277128)"><path d="M30.57 1.91 L360.46 0.26 L375.77 3.69 L384.16 6.02 L388.62 16.76 L392.82 32.39 L393.83 338.31 L388.89 351.25 L386.14 360.77 L375.4 367.71 L360.91 370.08 L33.46 370.39 L19.54 368.85 L8.54 364.6 L1.83 353.04 L0.97 337 L0.42 31.31 L2.32 18.91 L7.19 7.8 L16.75 3.17 L30.62 -0.09" stroke="none" stroke-width="0" fill="#b2f2bb"></path><path d="M32 0 M32 0 C116.25 -0.68, 199.77 -0.8, 360.59 0 M32 0 C135.43 -0.14, 237.66 -0.31, 360.59 0 M360.59 0 C382.57 0.72, 391.83 9.62, 392.59 32 M360.59 0 C382.64 0.68, 391.38 12.76, 392.59 32 M392.59 32 C392.65 114.82, 391.68 196.04, 392.59 338.71 M392.59 32 C391.63 95.18, 392.05 159.02, 392.59 338.71 M392.59 338.71 C393.6 358.9, 380.02 370.55, 360.59 370.71 M392.59 338.71 C392.49 359.93, 381.84 370.51, 360.59 370.71 M360.59 370.71 C249.02 373.22, 136.85 370.58, 32 370.71 M360.59 370.71 C292.84 369.38, 226.06 369.73, 32 370.71 M32 370.71 C10.13 372.2, 1.43 361.92, 0 338.71 M32 370.71 C8.56 370.2, -0.91 359.02, 0 338.71 M0 338.71 C-1.08 223.13, -0.22 107.5, 0 32 M0 338.71 C-0.16 218.6, 1.07 96.67, 0 32 M0 32 C-0.4 9.54, 9.87 1.83, 32 0 M0 32 C-0.03 8.99, 10.95 0.81, 32 0" stroke="#1e1e1e" stroke-width="1" fill="none"></path></g><g transform="translate(698.8531252472612 664.9095964239748) rotate(0 73.3642578125 11.5)"><text x="0" y="0" font-family="Helvetica, Segoe UI Emoji" font-size="20px" fill="#1e1e1e" text-anchor="start" style="white-space: pre;" direction="ltr" dominant-baseline="text-before-edge">/pltillos/:idPlatillo</text></g><g stroke-linecap="round"><g transform="translate(99.41848409792328 448.21257541525506) rotate(0 41.51848329189579 0.16845448610888525)"><path d="M0.96 -0.91 C14.5 -0.92, 67.39 0.82, 80.77 1.07 M0 1.23 C13.97 1.41, 69.66 -0.05, 83.03 -0.48" stroke="#1e1e1e" stroke-width="1" fill="none"></path></g><g transform="translate(99.41848409792328 448.21257541525506) rotate(0 41.51848329189579 0.16845448610888525)"><path d="M53.63 9.15 C64.03 6.84, 70.5 6.22, 82.41 0.19 M54.65 9.79 C64.79 6.37, 73.13 2.74, 83.46 -1.1" stroke="#1e1e1e" stroke-width="1" fill="none"></path></g><g transform="translate(99.41848409792328 448.21257541525506) rotate(0 41.51848329189579 0.16845448610888525)"><path d="M53.05 -11.36 C63.8 -8.37, 70.42 -3.7, 82.41 0.19 M54.07 -10.72 C64.29 -7.41, 72.82 -4.32, 83.46 -1.1" stroke="#1e1e1e" stroke-width="1" fill="none"></path></g></g><mask></mask><g stroke-linecap="round" transform="translate(490.59883677284415 726.1194747719635) rotate(0 117.49481815955323 85.83453781715889)"><path d="M31.94 0.29 L201.65 1.44 L216.8 3.33 L228.22 8.14 L231.41 18.01 L234.29 30.28 L233.94 140.42 L231.35 152.62 L226.19 163.03 L215.52 170.32 L202.58 170.65 L30.54 172.88 L17.19 167.84 L7.77 165.55 L1.67 152.51 L-1.8 138.92 L1.83 22.78 L2.44 19.3 L7.09 9.15 L17.74 1.38 L30.52 -0.5" stroke="none" stroke-width="0" fill="#a5d8ff"></path><path d="M32 0 M32 0 C83.78 -0.21, 136 1.88, 202.99 0 M32 0 C81.38 0.93, 129.18 2.34, 202.99 0 M202.99 0 C224.11 -1.37, 234.26 10.62, 234.99 32 M202.99 0 C222.81 1.27, 237.25 12.59, 234.99 32 M234.99 32 C235.41 61.38, 235.54 92.6, 234.99 139.67 M234.99 32 C234.63 72.17, 233.97 111.93, 234.99 139.67 M234.99 139.67 C235.63 162.06, 223 172.1, 202.99 171.67 M234.99 139.67 C235.19 158.82, 226.19 172.8, 202.99 171.67 M202.99 171.67 C148.99 173.73, 91.47 171.35, 32 171.67 M202.99 171.67 C153.43 171.08, 105.84 169.94, 32 171.67 M32 171.67 C12.39 171.13, -1.1 160.47, 0 139.67 M32 171.67 C11.71 172.85, 1.79 162.85, 0 139.67 M0 139.67 C1.74 98.91, -0.94 54.62, 0 32 M0 139.67 C-0.07 96.15, 0.68 54.95, 0 32 M0 32 C-0.98 11.74, 12.2 -0.44, 32 0 M0 32 C0.42 9.94, 9.93 -0.24, 32 0" stroke="#1e1e1e" stroke-width="1" fill="none"></path></g><g transform="translate(566.5835095945904 909.0455389724659) rotate(0 48.916015625 11.5)"><text x="0" y="0" font-family="Helvetica, Segoe UI Emoji" font-size="20px" fill="#1e1e1e" text-anchor="start" style="white-space: pre;" direction="ltr" dominant-baseline="text-before-edge">Chilaquiles</text></g><g stroke-linecap="round"><g transform="translate(385.0645689648609 1006.1370653558095) rotate(0 59.967192835537844 -15.912458000828792)"><path d="M0.1 0.58 C19.96 -4.62, 99.11 -25.28, 118.9 -30.51 M-1.31 -0.16 C18.97 -5.78, 100.81 -27.53, 121.24 -32.4" stroke="#1e1e1e" stroke-width="1" fill="none"></path></g><g transform="translate(385.0645689648609 1006.1370653558095) rotate(0 59.967192835537844 -15.912458000828792)"><path d="M97.42 -16.68 C103.93 -21.49, 110.29 -24.65, 121.8 -34.23 M95.88 -15.78 C101.6 -19.31, 108.04 -22.82, 122 -32.79" stroke="#1e1e1e" stroke-width="1" fill="none"></path></g><g transform="translate(385.0645689648609 1006.1370653558095) rotate(0 59.967192835537844 -15.912458000828792)"><path d="M92.36 -36.57 C100.38 -35.9, 108.13 -33.58, 121.8 -34.23 M90.82 -35.67 C97.62 -34.71, 105.2 -33.7, 122 -32.79" stroke="#1e1e1e" stroke-width="1" fill="none"></path></g></g><mask></mask><g transform="translate(265.4590654491476 994.8800767896244) rotate(0 52.24609375 23)"><text x="0" y="0" font-family="Helvetica, Segoe UI Emoji" font-size="20px" fill="#1e1e1e" text-anchor="start" style="white-space: pre;" direction="ltr" dominant-baseline="text-before-edge">Numero de </text><text x="0" y="23" font-family="Helvetica, Segoe UI Emoji" font-size="20px" fill="#1e1e1e" text-anchor="start" style="white-space: pre;" direction="ltr" dominant-baseline="text-before-edge">platillos</text></g><g transform="translate(527.1840496129435 963.9233582326167) rotate(0 11.4013671875 11.5)"><text x="0" y="0" font-family="Helvetica, Segoe UI Emoji" font-size="20px" fill="#1e1e1e" text-anchor="start" style="white-space: pre;" direction="ltr" dominant-baseline="text-before-edge">+5</text></g><g transform="translate(594.7259810100522 966.737605374163) rotate(0 21.6748046875 11.5)"><text x="0" y="0" font-family="Helvetica, Segoe UI Emoji" font-size="20px" fill="#1e1e1e" text-anchor="start" style="white-space: pre;" direction="ltr" dominant-baseline="text-before-edge">3min</text></g><g transform="translate(677.7462716856653 963.9233582326171) rotate(0 13.9013671875 11.5)"><text x="0" y="0" font-family="Helvetica, Segoe UI Emoji" font-size="20px" fill="#1e1e1e" text-anchor="start" style="white-space: pre;" direction="ltr" dominant-baseline="text-before-edge">4.5</text></g><g stroke-linecap="round" transform="translate(517.3341846175317 1001.9156946434907) rotate(0 87 29)"><path d="M15.99 1.51 L167.47 -0.89 L169.25 3.95 L174.43 9.94 L174.42 51.25 L169.21 57.64 L159.22 58.49 L9.6 56.25 L3.16 55.05 L0.39 45.94 L1.13 11.54 L3.52 6.18 L4.21 3.68 L14.93 -1.88" stroke="none" stroke-width="0" fill="#a5d8ff"></path><path d="M14.5 0 M14.5 0 C73.15 -0.27, 128.9 1.53, 159.5 0 M14.5 0 C63.88 0.59, 111.57 0.71, 159.5 0 M159.5 0 C170.71 -1.27, 172.71 3.08, 174 14.5 M159.5 0 C167.27 1.38, 172.39 4.8, 174 14.5 M174 14.5 C172.88 19.28, 173.33 27.82, 174 43.5 M174 14.5 C174.77 22.43, 173.83 29.03, 174 43.5 M174 43.5 C172.37 54.52, 169.68 59.21, 159.5 58 M174 43.5 C172.56 55.35, 171.15 59.32, 159.5 58 M159.5 58 C107.45 57.52, 58.98 57.78, 14.5 58 M159.5 58 C107.76 58.17, 57.83 57.31, 14.5 58 M14.5 58 C6.48 58.63, -1.95 54.88, 0 43.5 M14.5 58 C4.81 57.8, -0.68 54.6, 0 43.5 M0 43.5 C0.88 33.09, 0.78 20, 0 14.5 M0 43.5 C-0.53 36.96, 0.28 31.45, 0 14.5 M0 14.5 C0.93 4.07, 5.32 -0.29, 14.5 0 M0 14.5 C-1.03 4.73, 5.78 2.25, 14.5 0" stroke="#1e1e1e" stroke-width="1" fill="none"></path></g><g transform="translate(544.8517627425317 1019.4156946434907) rotate(0 59.482421875 11.5)"><text x="59.482421875" y="0" font-family="Helvetica, Segoe UI Emoji" font-size="20px" fill="#1e1e1e" text-anchor="middle" style="white-space: pre;" direction="ltr" dominant-baseline="text-before-edge">Hacer pedido</text></g><g stroke-linecap="round"><g transform="translate(811.8920112261849 871.2876922362445) rotate(0 167.35210536707882 -0.23669628684319832)"><path d="M1.2 -0.99 C57.08 -0.87, 279 0.18, 334.34 0.17 M0.37 1.11 C56.26 0.93, 278.56 -1.4, 333.89 -1.58" stroke="#1e1e1e" stroke-width="1" fill="none"></path></g><g transform="translate(811.8920112261849 871.2876922362445) rotate(0 167.35210536707882 -0.23669628684319832)"><path d="M304.13 10.49 C313.15 6.04, 317.28 2.35, 334.02 -0.08 M306.46 9.11 C317.11 4.93, 326.5 1.07, 333.89 -1.76" stroke="#1e1e1e" stroke-width="1" fill="none"></path></g><g transform="translate(811.8920112261849 871.2876922362445) rotate(0 167.35210536707882 -0.23669628684319832)"><path d="M303.98 -10.03 C312.94 -9.99, 317.11 -9.2, 334.02 -0.08 M306.31 -11.41 C316.84 -8.05, 326.29 -4.38, 333.89 -1.76" stroke="#1e1e1e" stroke-width="1" fill="none"></path></g></g><mask></mask><g stroke-linecap="round" transform="translate(1148.7886983350345 702.9684815973385) rotate(0 291.2745791500306 185.35482849277128)"><path d="M32.88 1.81 L550.66 0.5 L559.57 0.33 L569.42 3.68 L578.38 13.64 L578.76 18.76 L583.33 30.82 L582.98 337.76 L583.04 347.58 L578.5 357.41 L571.75 366.85 L563.87 370.47 L548.84 370.55 L32.74 369.35 L25.23 371.81 L11.49 367.34 L6.14 358.08 L1 352.62 L0.27 338.74 L0.33 33.01 L0.48 16.8 L9.16 9.84 L18.75 2.27 L30.29 -0.8" stroke="none" stroke-width="0" fill="#b2f2bb"></path><path d="M32 0 M32 0 C141.69 1.13, 250.64 1.6, 550.55 0 M32 0 C175.61 -0.45, 319.73 -0.35, 550.55 0 M550.55 0 C573.59 -0.13, 580.62 10.85, 582.55 32 M550.55 0 C572.16 2.15, 580.31 11.93, 582.55 32 M582.55 32 C582.52 109.82, 581.63 184.81, 582.55 338.71 M582.55 32 C583.46 121.22, 583.85 211.13, 582.55 338.71 M582.55 338.71 C582.58 360.06, 571.33 371.73, 550.55 370.71 M582.55 338.71 C580.44 359.35, 571.41 372.6, 550.55 370.71 M550.55 370.71 C420.49 369.53, 290.69 368.59, 32 370.71 M550.55 370.71 C410.75 370.98, 271.78 371.06, 32 370.71 M32 370.71 C12.03 371.11, 1.07 358.56, 0 338.71 M32 370.71 C8.87 370.47, -0.97 360.37, 0 338.71 M0 338.71 C-1.87 260.3, -2.3 182.1, 0 32 M0 338.71 C-2.09 229, -2.09 119.65, 0 32 M0 32 C1.93 10.19, 12.46 1.44, 32 0 M0 32 C-1.43 12.77, 12.48 1.79, 32 0" stroke="#1e1e1e" stroke-width="1" fill="none"></path></g><g transform="translate(1329.1070377943506 645.7171421089249) rotate(0 87.96484375 16.09999999999991)"><text x="0" y="0" font-family="Helvetica, Segoe UI Emoji" font-size="28px" fill="#1e1e1e" text-anchor="start" style="white-space: pre;" direction="ltr" dominant-baseline="text-before-edge">/pedido/nuevo</text></g><g stroke-linecap="round"><g transform="translate(1430.496838009175 1075.3261485310202) rotate(0 1.5596465985872783 163.15317565554778)"><path d="M0.42 0.36 C1.03 54.68, 3.23 271.21, 3.93 325.17 M-0.81 -0.49 C-0.38 54.11, 2.18 272.56, 3.03 326.8" stroke="#1e1e1e" stroke-width="1" fill="none"></path></g><g transform="translate(1430.496838009175 1075.3261485310202) rotate(0 1.5596465985872783 163.15317565554778)"><path d="M-7 298.88 C-4.06 309.07, -2.39 318.74, 3.5 328.36 M-8.31 299.59 C-3.01 308.4, 0.04 319.25, 3.47 327.64" stroke="#1e1e1e" stroke-width="1" fill="none"></path></g><g transform="translate(1430.496838009175 1075.3261485310202) rotate(0 1.5596465985872783 163.15317565554778)"><path d="M13.52 298.61 C9.83 308.96, 4.87 318.71, 3.5 328.36 M12.21 299.31 C10.27 308.02, 6.1 318.97, 3.47 327.64" stroke="#1e1e1e" stroke-width="1" fill="none"></path></g></g><mask></mask><g transform="translate(1348.230156412953 1493.5929800937454) rotate(0 133.4130859375 11.5)"><text x="0" y="0" font-family="Helvetica, Segoe UI Emoji" font-size="20px" fill="#1e1e1e" text-anchor="start" style="white-space: pre;" direction="ltr" dominant-baseline="text-before-edge">/proveedor/pedidos/:idUsuario</text></g><g stroke-linecap="round"><g transform="translate(1431.7194928637791 1195.048281673243) rotate(0 -233.86931581753697 131.86718217899488)"><path d="M-0.6 -0.3 C-110.15 0.43, -220.64 -0.46, -463.63 -3.54 M-0.31 0.09 C-172.37 -0.56, -344.77 -2.61, -462.76 -4.31 M-463.94 -4.18 C-467.32 98.28, -467.63 201.11, -467.36 268.38 M-463.5 -4.65 C-461.99 88.32, -463.31 181.52, -466.59 268.3" stroke="#1e1e1e" stroke-width="1" fill="none"></path></g><g transform="translate(1431.7194928637791 1195.048281673243) rotate(0 -233.86931581753697 131.86718217899488)"><path d="M-477.29 239.17 C-473.05 248.03, -471.15 255.08, -468.07 269.77 M-476.66 240.02 C-472.12 250.42, -468.25 260.01, -466.19 268.11" stroke="#1e1e1e" stroke-width="1" fill="none"></path></g><g transform="translate(1431.7194928637791 1195.048281673243) rotate(0 -233.86931581753697 131.86718217899488)"><path d="M-456.78 239.78 C-457.43 248.58, -460.42 255.48, -468.07 269.77 M-456.14 240.63 C-459.25 250.9, -463.02 260.27, -466.19 268.11" stroke="#1e1e1e" stroke-width="1" fill="none"></path></g></g><mask></mask><g transform="translate(871.4497971955934 1481.397923964276) rotate(0 93.955078125 11.5)"><text x="0" y="0" font-family="Helvetica, Segoe UI Emoji" font-size="20px" fill="#1e1e1e" text-anchor="start" style="white-space: pre;" direction="ltr" dominant-baseline="text-before-edge">/proveedor/pedido/:id</text></g><g transform="translate(1530.2671238310513 2002.5455044391558) rotate(0 125.0927734375 11.5)"><text x="0" y="0" font-family="Helvetica, Segoe UI Emoji" font-size="20px" fill="#1e1e1e" text-anchor="start" style="white-space: pre;" direction="ltr" dominant-baseline="text-before-edge">/proveedor/pedido-aceptado</text></g><g stroke-linecap="round"><g transform="translate(650.3073862104329 325.0892710242508) rotate(0 -2.3932292190593216 -138.45143920953456)"><path d="M0.2 -0.18 C-1.22 -64.96, -3.07 -131.53, -4.12 -276.79 M-0.34 -0.11 C-0.28 -69.68, -1.9 -138.18, -4.98 -276.2" stroke="#1e1e1e" stroke-width="1" fill="none"></path></g><g transform="translate(650.3073862104329 325.0892710242508) rotate(0 -2.3932292190593216 -138.45143920953456)"><path d="M6.15 -248.47 C2.31 -253.24, -0.95 -260.33, -3.04 -277.48 M5.46 -248.39 C3.83 -255.75, 0.82 -261.77, -4.15 -276.71" stroke="#1e1e1e" stroke-width="1" fill="none"></path></g><g transform="translate(650.3073862104329 325.0892710242508) rotate(0 -2.3932292190593216 -138.45143920953456)"><path d="M-14.36 -248.02 C-13.28 -252.9, -11.6 -260.1, -3.04 -277.48 M-15.05 -247.93 C-11.53 -255.53, -9.38 -261.67, -4.15 -276.71" stroke="#1e1e1e" stroke-width="1" fill="none"></path></g></g><mask></mask><g transform="translate(496.34839291312437 10) rotate(0 40.455078125 16.100000000000023)"><text x="0" y="0" font-family="Helvetica, Segoe UI Emoji" font-size="28px" fill="#1971c2" text-anchor="start" style="white-space: pre;" direction="ltr" dominant-baseline="text-before-edge">POST:</text></g><g transform="translate(596.2719025981087 12.186348452094535) rotate(0 55.5908203125 11.5)"><text x="0" y="0" font-family="Helvetica, Segoe UI Emoji" font-size="20px" fill="#1e1e1e" text-anchor="start" style="white-space: pre;" direction="ltr" dominant-baseline="text-before-edge">/platillos/add</text></g><g transform="translate(493.56265024279946 243.78082174290262) rotate(0 133.9453125 11.5)"><text x="0" y="0" font-family="Helvetica, Segoe UI Emoji" font-size="20px" fill="#2f9e44" text-anchor="start" style="white-space: pre;" direction="ltr" dominant-baseline="text-before-edge">-Mostrar pedidos  repartidores</text></g><g stroke-linecap="round" transform="translate(814.9493392758268 1561.8075741018872) rotate(0 150 53.333333333333485)"><path d="M27.09 -1.49 L275.19 -0.63 L284.96 -0.15 L292.47 7.25 L294.82 11.19 L299.01 18.77 L300.2 78.98 L298.2 90.85 L297.45 95.35 L291.57 102.13 L271.61 107.77 L26.34 106.86 L15.53 103.54 L9.64 104.43 L5.16 94.86 L-0.31 86.41 L-0.82 18.54 L2.6 9.2 L5.46 6.21 L16.35 3.3 L26.76 -1.09" stroke="none" stroke-width="0" fill="#b2f2bb"></path><path d="M26.67 0 M26.67 0 C84.56 -2.77, 140.19 -2.69, 273.33 0 M26.67 0 C99.7 2.34, 174.2 2.08, 273.33 0 M273.33 0 C289.98 -1.72, 299.08 10.84, 300 26.67 M273.33 0 C289.34 1.58, 299.5 7.18, 300 26.67 M300 26.67 C298.86 40.14, 300.73 50.5, 300 80 M300 26.67 C298.79 41.21, 300.37 56.41, 300 80 M300 80 C299.71 98.42, 291.49 108.18, 273.33 106.67 M300 80 C297.82 97.32, 293.06 106.36, 273.33 106.67 M273.33 106.67 C180.55 105.73, 89.46 107.69, 26.67 106.67 M273.33 106.67 C175.57 107.38, 75.97 107.31, 26.67 106.67 M26.67 106.67 C8.1 106.68, -0.02 98.84, 0 80 M26.67 106.67 C7.48 104.46, -0.1 99.51, 0 80 M0 80 C0.68 60.54, -1.19 41.83, 0 26.67 M0 80 C0.13 60.23, -0.4 39.83, 0 26.67 M0 26.67 C1.37 10.66, 9.47 -0.59, 26.67 0 M0 26.67 C-0.45 8.08, 8.37 0.29, 26.67 0" stroke="#1e1e1e" stroke-width="1" fill="none"></path></g><g stroke-linecap="round" transform="translate(860.3414528198437 268.11944605174745) rotate(0 207.94124581669712 126.18816182610453)"><path d="M33.52 1.96 L383.87 -1.32 L391.99 2.38 L402.6 6.36 L411.56 12.28 L413.52 18.39 L416.64 32.8 L416.85 219.59 L414.62 227.57 L410.67 240.78 L404.28 248.72 L396.96 252.01 L383.27 250.63 L33.16 251.62 L25.24 251.43 L11.25 249.05 L3.84 241.87 L3.44 234.86 L1.98 220.85 L-0.31 24.37 L1.8 17.48 L6.34 7.66 L18.33 3.15 L33.6 1.78" stroke="none" stroke-width="0" fill="#b2f2bb"></path><path d="M32 0 M32 0 C129.44 0.9, 225.27 0.7, 383.88 0 M32 0 C154.4 0.84, 276.67 0.83, 383.88 0 M383.88 0 C404.35 1.41, 417.12 12.47, 415.88 32 M383.88 0 C406.1 1.44, 417.09 9.76, 415.88 32 M415.88 32 C416.73 74.18, 415.67 120.87, 415.88 220.38 M415.88 32 C415.95 73.4, 417.42 114.34, 415.88 220.38 M415.88 220.38 C414.17 240.78, 406.51 253.46, 383.88 252.38 M415.88 220.38 C416.49 241.06, 405.3 254.62, 383.88 252.38 M383.88 252.38 C259.6 253.4, 136.57 252.61, 32 252.38 M383.88 252.38 C278.21 253.92, 172.76 253.44, 32 252.38 M32 252.38 C10.8 252.7, -0.68 241.25, 0 220.38 M32 252.38 C10.82 250.27, 0.75 240.73, 0 220.38 M0 220.38 C1.64 166.76, 1.05 113.17, 0 32 M0 220.38 C0.69 163.71, 0.36 106.84, 0 32 M0 32 C1.24 11.41, 11.75 -0.33, 32 0 M0 32 C0.31 11.97, 10.84 2.22, 32 0" stroke="#1e1e1e" stroke-width="1" fill="none"></path></g><g stroke-linecap="round" transform="translate(904.1212138103183 287.63973672736006) rotate(0 41.66148482621975 37.50120448382563)"><path d="M18.57 0.79 L68.62 0.83 L80.51 5.1 L83.83 9.65 L82.63 20.41 L82.27 60.86 L80.14 69.09 L73.69 75.78 L62.83 74.67 L14.01 74.7 L4.4 72.14 L1.11 60.31 L0.68 14.73 L2.79 4.6 L9.73 1.26 L20.36 1.31" stroke="none" stroke-width="0" fill="#a5d8ff"></path><path d="M18.75 0 M18.75 0 C29.11 0.22, 41.52 1.07, 64.57 0 M18.75 0 C36.83 -0.37, 54.37 -0.33, 64.57 0 M64.57 0 C77.72 -1.47, 84.12 6.41, 83.32 18.75 M64.57 0 C76.69 -1.12, 81.31 8.17, 83.32 18.75 M83.32 18.75 C82.11 30.72, 82.99 47.97, 83.32 56.25 M83.32 18.75 C83.33 26.04, 82.72 34.49, 83.32 56.25 M83.32 56.25 C81.52 69.6, 78.98 75.94, 64.57 75 M83.32 56.25 C82.21 68.64, 75.72 76.32, 64.57 75 M64.57 75 C55.36 74.09, 44.8 76.25, 18.75 75 M64.57 75 C52.65 74.24, 39.71 75.4, 18.75 75 M18.75 75 C5.45 73.19, 1.05 68.51, 0 56.25 M18.75 75 C6.35 76.32, -1.05 70.32, 0 56.25 M0 56.25 C-0.3 44.84, -0.74 34.06, 0 18.75 M0 56.25 C0.03 47.6, 0.19 41.58, 0 18.75 M0 18.75 C1.95 4.84, 7.46 0.12, 18.75 0 M0 18.75 C0.32 6.18, 7.02 -0.66, 18.75 0" stroke="#1e1e1e" stroke-width="1" fill="none"></path></g><g stroke-linecap="round" transform="translate(1024.9545471436531 287.63973672736006) rotate(0 41.66148482621975 37.50120448382563)"><path d="M17.58 1.15 L67.02 0.21 L78.9 4.76 L81.18 9.35 L84.51 18.16 L81.13 60.69 L79.56 68.78 L72.58 74.6 L63.77 73.19 L15.4 74.46 L4.78 71.46 L-0.62 62.01 L0.36 13.89 L4.27 4.3 L10.52 0.34 L19.32 -1.88" stroke="none" stroke-width="0" fill="#a5d8ff"></path><path d="M18.75 0 M18.75 0 C32.95 0.66, 52.42 1.85, 64.57 0 M18.75 0 C29.41 -0.06, 40.13 -0.31, 64.57 0 M64.57 0 C76.01 0.32, 85.2 7.7, 83.32 18.75 M64.57 0 C79.18 -0.57, 83.21 8.27, 83.32 18.75 M83.32 18.75 C84.65 34.1, 84.5 46.53, 83.32 56.25 M83.32 18.75 C83.14 29.49, 82.86 39.89, 83.32 56.25 M83.32 56.25 C82.46 66.8, 75.64 73.54, 64.57 75 M83.32 56.25 C84.17 68.95, 79.1 75.41, 64.57 75 M64.57 75 C48.04 74.09, 30.77 75.96, 18.75 75 M64.57 75 C49.41 75.73, 33.87 74.93, 18.75 75 M18.75 75 C8.07 76.21, 0.98 70.03, 0 56.25 M18.75 75 C6.2 74.74, -1.01 67.55, 0 56.25 M0 56.25 C0.3 49.91, 1.45 40.58, 0 18.75 M0 56.25 C0.36 47.45, 0.59 39.72, 0 18.75 M0 18.75 C0.5 5.5, 6.35 1.82, 18.75 0 M0 18.75 C1.92 5.53, 5.22 2.06, 18.75 0" stroke="#1e1e1e" stroke-width="1" fill="none"></path></g><g stroke-linecap="round" transform="translate(1144.9545471436522 287.63973672736006) rotate(0 41.66148482621975 37.50120448382563)"><path d="M18.72 -0.83 L69.53 -1.58 L79.64 4.18 L82.58 8.7 L84.09 20.33 L84.98 59.24 L79.84 70.43 L73.05 73.77 L65.25 74.43 L13.29 75.03 L6.56 71.77 L2.12 60.15 L0.2 16.11 L5.92 3.54 L8.77 2.71 L20.54 1.39" stroke="none" stroke-width="0" fill="#a5d8ff"></path><path d="M18.75 0 M18.75 0 C33.75 -0.69, 49.69 -1.25, 64.57 0 M18.75 0 C32.16 -0.29, 47.37 0.53, 64.57 0 M64.57 0 C78.84 0.36, 84.88 6.36, 83.32 18.75 M64.57 0 C75.93 0.89, 82.53 7.18, 83.32 18.75 M83.32 18.75 C82.25 31.79, 85.42 44.06, 83.32 56.25 M83.32 18.75 C84.15 31.36, 83.64 42.58, 83.32 56.25 M83.32 56.25 C82.45 67.71, 75.46 75.95, 64.57 75 M83.32 56.25 C83.78 69.31, 79.23 76.87, 64.57 75 M64.57 75 C49.37 75.47, 33.06 75.93, 18.75 75 M64.57 75 C48.31 75.74, 32.79 74.52, 18.75 75 M18.75 75 C5.35 76.79, 1.54 67.82, 0 56.25 M18.75 75 C7.01 72.75, 2.22 67.77, 0 56.25 M0 56.25 C-2.16 45.31, -0.71 35.98, 0 18.75 M0 56.25 C-1.01 44.37, -0.81 33.6, 0 18.75 M0 18.75 C-1.29 6.85, 8.23 0.37, 18.75 0 M0 18.75 C-1.78 5.99, 5.78 -1.85, 18.75 0" stroke="#1e1e1e" stroke-width="1" fill="none"></path></g><g stroke-linecap="round" transform="translate(911.621213810321 395.9730700606931) rotate(0 41.66148482621975 37.50120448382563)"><path d="M17.62 0.16 L68.11 -1.66 L77.2 3.22 L82.88 10.72 L85.09 19.11 L84.58 60.75 L77.64 71.08 L72.09 74.64 L65.75 75.53 L14.45 73.54 L4.26 72.31 L-1.33 61.03 L2.11 15.56 L5.67 5.96 L10.5 0.94 L17.88 -1.05" stroke="none" stroke-width="0" fill="#a5d8ff"></path><path d="M18.75 0 M18.75 0 C29.28 1.78, 40.46 0.68, 64.57 0 M18.75 0 C29.48 -0.32, 40.15 0.49, 64.57 0 M64.57 0 C77.58 -0.75, 83.43 8.07, 83.32 18.75 M64.57 0 C79 -0.72, 82.29 8.31, 83.32 18.75 M83.32 18.75 C81.19 34.82, 82.3 46.83, 83.32 56.25 M83.32 18.75 C83.51 31.99, 84.29 45.67, 83.32 56.25 M83.32 56.25 C84.2 67.62, 75.38 73.29, 64.57 75 M83.32 56.25 C81.83 67.35, 75.59 75.7, 64.57 75 M64.57 75 C46.07 74.24, 26.41 76.28, 18.75 75 M64.57 75 C54.9 75.58, 44.19 74.74, 18.75 75 M18.75 75 C6.76 75.24, 1.12 67.77, 0 56.25 M18.75 75 C4.26 75.88, 0.7 67.42, 0 56.25 M0 56.25 C1.41 44.17, -1.51 35.54, 0 18.75 M0 56.25 C-0.75 48.05, -1.11 39.04, 0 18.75 M0 18.75 C0.65 7.49, 7.22 -1.16, 18.75 0 M0 18.75 C2 5.48, 7.26 -0.06, 18.75 0" stroke="#1e1e1e" stroke-width="1" fill="none"></path></g><g stroke-linecap="round" transform="translate(1033.287880476987 397.6397367273596) rotate(0 41.66148482621975 37.50120448382563)"><path d="M18.32 2 L67.34 0.68 L80.45 5.89 L83.13 11.82 L83.28 18.52 L82.16 59.6 L77.02 71.26 L73.18 74.31 L66.45 76.63 L15.12 73.27 L4.26 70.62 L0.86 60.15 L1.31 15.47 L5.19 3.94 L10.65 2.99 L20.42 -0.63" stroke="none" stroke-width="0" fill="#a5d8ff"></path><path d="M18.75 0 M18.75 0 C29.5 0.31, 40.16 1.58, 64.57 0 M18.75 0 C31.09 -1.24, 42.33 -0.52, 64.57 0 M64.57 0 C78.61 -0.12, 84.2 5.12, 83.32 18.75 M64.57 0 C75.13 -1.97, 81.83 4.85, 83.32 18.75 M83.32 18.75 C83.8 26.03, 83.21 35.99, 83.32 56.25 M83.32 18.75 C84.04 27.61, 83.98 35.52, 83.32 56.25 M83.32 56.25 C82.65 67.65, 77.59 75.24, 64.57 75 M83.32 56.25 C84.61 67.62, 75.08 75.88, 64.57 75 M64.57 75 C48.66 75.47, 35.54 73.26, 18.75 75 M64.57 75 C55.1 73.93, 44.08 75.48, 18.75 75 M18.75 75 C4.41 76.4, 0.65 69.99, 0 56.25 M18.75 75 C7.36 73.67, 2 67.98, 0 56.25 M0 56.25 C-1.2 45.08, -0.45 31.32, 0 18.75 M0 56.25 C0.72 45.52, -0.22 33.62, 0 18.75 M0 18.75 C1.96 6.06, 8.16 1.75, 18.75 0 M0 18.75 C1.05 5.45, 6.69 -0.05, 18.75 0" stroke="#1e1e1e" stroke-width="1" fill="none"></path></g><g stroke-linecap="round" transform="translate(1151.621213810321 397.63973672736006) rotate(0 41.66148482621975 37.50120448382563)"><path d="M18.57 1.19 L70.04 -1.64 L78.6 4.2 L83.69 10.43 L84.2 17.62 L81.34 58.93 L77.34 69.09 L71.48 74.43 L66.55 75.37 L12.81 74.49 L4.28 68.71 L1.92 59.02 L1.12 15.59 L5.39 5.28 L9.87 0.07 L19.27 0.24" stroke="none" stroke-width="0" fill="#a5d8ff"></path><path d="M18.75 0 M18.75 0 C35.83 1.01, 50.23 -0.04, 64.57 0 M18.75 0 C29.93 -1.11, 42.82 -0.9, 64.57 0 M64.57 0 C78.05 -1.58, 82.2 7.77, 83.32 18.75 M64.57 0 C74.95 1.61, 84.07 7.68, 83.32 18.75 M83.32 18.75 C82.43 32.69, 83.05 43.69, 83.32 56.25 M83.32 18.75 C84.08 27.84, 83.51 35.72, 83.32 56.25 M83.32 56.25 C84.65 70.71, 76.54 76.56, 64.57 75 M83.32 56.25 C85.58 68.53, 79.26 77.02, 64.57 75 M64.57 75 C48.68 75.81, 32.45 75.7, 18.75 75 M64.57 75 C53.23 75.2, 40.62 74.85, 18.75 75 M18.75 75 C5.31 75.15, 0.11 69.45, 0 56.25 M18.75 75 C4.61 75.06, 0.07 68.6, 0 56.25 M0 56.25 C-0.33 46.18, 1.67 37.64, 0 18.75 M0 56.25 C0.63 41.86, 0.59 28.22, 0 18.75 M0 18.75 C0.51 7.77, 5.08 -0.1, 18.75 0 M0 18.75 C-0.61 8.28, 8.3 0.18, 18.75 0" stroke="#1e1e1e" stroke-width="1" fill="none"></path></g><g stroke-linecap="round" transform="translate(1193.8434303369868 736.8064025992978) rotate(0 104.99481815955323 81.66787115049237)"><path d="M31.06 0.14 L178.1 0.7 L190.56 2.05 L202.05 7.87 L206.43 18.93 L209.1 31.84 L208.24 133.18 L206.03 146.84 L203.95 154.83 L193.99 160.68 L179.91 163.53 L32.51 164.85 L16.83 161.23 L7.47 157.1 L3.78 145.49 L1.16 130.8 L0.74 24.68 L2.22 17.63 L8.05 8.77 L17.69 2.89 L31.41 0.39" stroke="none" stroke-width="0" fill="#a5d8ff"></path><path d="M32 0 M32 0 C67.34 1.15, 105.85 -1.14, 177.99 0 M32 0 C64.67 -2.33, 98.37 -2.22, 177.99 0 M177.99 0 C201.12 -1.22, 209.22 12.1, 209.99 32 M177.99 0 C200.78 -1.14, 211.89 10.1, 209.99 32 M209.99 32 C208.11 68.08, 210.23 106.63, 209.99 131.34 M209.99 32 C210.75 53.42, 210.04 75.06, 209.99 131.34 M209.99 131.34 C208.28 151.01, 198.92 165.32, 177.99 163.34 M209.99 131.34 C211.28 150.4, 198.61 164.28, 177.99 163.34 M177.99 163.34 C118.98 162.82, 61.86 162.39, 32 163.34 M177.99 163.34 C138.91 161.91, 100.66 162.32, 32 163.34 M32 163.34 C11.56 162.2, 0.29 151.81, 0 131.34 M32 163.34 C10.8 164.57, 1.01 152.85, 0 131.34 M0 131.34 C-0.75 91.34, 0.51 54.17, 0 32 M0 131.34 C0.12 108.64, -1.64 84.57, 0 32 M0 32 C0.46 9.28, 10.03 0.11, 32 0 M0 32 C1.41 9, 10.48 1.51, 32 0" stroke="#1e1e1e" stroke-width="1" fill="none"></path></g><g transform="translate(1250.7555662048744 924.4742737497897) rotate(0 48.916015625 11.5)"><text x="0" y="0" font-family="Helvetica, Segoe UI Emoji" font-size="20px" fill="#1e1e1e" text-anchor="start" style="white-space: pre;" direction="ltr" dominant-baseline="text-before-edge">Chilaquiles</text></g><g stroke-linecap="round" transform="translate(1458.5604632350705 734.3076070831228) rotate(0 106.66666666666652 116.66666666666674)"><path d="M31.63 -0.24 L189.75 1.08 L201.72 3.36 L209.12 11.65 L211.45 19.08 L214.21 32.15 L215.22 201.81 L211.78 214.82 L208 221.58 L201.99 227.48 L196.64 230.54 L182.86 234.11 L30.01 232.14 L18.46 229.95 L11.87 228.94 L5.73 219.39 L1.84 216.64 L-0.51 201.93 L-1.24 22.73 L1.25 16.37 L9.85 8.3 L18.94 1.14 L30.19 -1.39" stroke="none" stroke-width="0" fill="#b2f2bb"></path><path d="M32 0 M32 0 C88.4 2.08, 139.92 1.93, 181.33 0 M32 0 C79.67 0.73, 126.06 -1.19, 181.33 0 M181.33 0 C202.65 0.35, 211.64 10.21, 213.33 32 M181.33 0 C201.57 -1.5, 214.34 12.54, 213.33 32 M213.33 32 C213.86 86.82, 214.98 137.02, 213.33 201.33 M213.33 32 C212.89 81.1, 212.38 132.11, 213.33 201.33 M213.33 201.33 C212.53 224.14, 203.22 232.44, 181.33 233.33 M213.33 201.33 C212.87 221.26, 204.1 232.39, 181.33 233.33 M181.33 233.33 C135.85 234.16, 92.45 230.84, 32 233.33 M181.33 233.33 C144.55 232.66, 107.63 232.37, 32 233.33 M32 233.33 C11.75 232.85, 0.26 224.11, 0 201.33 M32 233.33 C10.03 234.22, -1.04 224.76, 0 201.33 M0 201.33 C2.49 142.52, -0.55 84, 0 32 M0 201.33 C1.64 158.88, 1.54 114.09, 0 32 M0 32 C0.04 10.16, 9.15 0.98, 32 0 M0 32 C0.13 9.27, 8.54 1.83, 32 0" stroke="#1e1e1e" stroke-width="1" fill="none"></path></g><g transform="translate(1465.5865049017366 818.7742737497895) rotate(0 99.640625 32.200000000000045)"><text x="99.640625" y="0" font-family="Helvetica, Segoe UI Emoji" font-size="28px" fill="#1e1e1e" text-anchor="middle" style="white-space: pre;" direction="ltr" dominant-baseline="text-before-edge">Formulario con </text><text x="99.640625" y="32.199999999999996" font-family="Helvetica, Segoe UI Emoji" font-size="28px" fill="#1e1e1e" text-anchor="middle" style="white-space: pre;" direction="ltr" dominant-baseline="text-before-edge">datos de pedido</text></g><g stroke-linecap="round" transform="translate(1491.838243529488 1000.3076070831228) rotate(0 87 29)"><path d="M15.27 -0.9 L167.67 1.84 L169.41 2.81 L175.45 10.98 L171.72 49.89 L167.46 54.96 L161 59.57 L10.1 58.47 L2.85 54.42 L-0.28 45.38 L1.21 11.22 L0.82 3.81 L7.26 0.85 L14.96 0.59" stroke="none" stroke-width="0" fill="#a5d8ff"></path><path d="M14.5 0 M14.5 0 C67.35 -0.31, 121.44 2.47, 159.5 0 M14.5 0 C61.04 1.25, 110.12 1.81, 159.5 0 M159.5 0 C169.55 -0.5, 173.91 6.58, 174 14.5 M159.5 0 C169.47 0.16, 173.83 3.34, 174 14.5 M174 14.5 C174.06 24.73, 174.14 32.98, 174 43.5 M174 14.5 C174.44 25.37, 173.32 36.49, 174 43.5 M174 43.5 C172.78 52.83, 169.63 58.63, 159.5 58 M174 43.5 C175.82 51.01, 167.62 56.74, 159.5 58 M159.5 58 C117.13 60.52, 76.72 57.98, 14.5 58 M159.5 58 C112.95 57.92, 67.67 56.26, 14.5 58 M14.5 58 C4.87 56.56, -1.76 53.89, 0 43.5 M14.5 58 C4.27 58.42, 1.44 53.46, 0 43.5 M0 43.5 C0.71 35.28, -2.04 23.4, 0 14.5 M0 43.5 C-0.47 35.66, 0.59 29.17, 0 14.5 M0 14.5 C1 6.63, 5.58 -1.19, 14.5 0 M0 14.5 C-1.72 5.52, 4.01 -0.95, 14.5 0" stroke="#1e1e1e" stroke-width="1" fill="none"></path></g><g transform="translate(1502.134141966988 1017.8076070831228) rotate(0 76.7041015625 11.5)"><text x="76.7041015625" y="0" font-family="Helvetica, Segoe UI Emoji" font-size="20px" fill="#1e1e1e" text-anchor="middle" style="white-space: pre;" direction="ltr" dominant-baseline="text-before-edge">Confirmar pedido</text></g><g stroke-linecap="round"><g transform="translate(1728.5604536983265 892.6409404164567) rotate(0 79.71540011560955 -0.23661446743744818)"><path d="M0.76 -0.27 C27.53 -0.09, 133.23 0.87, 159.73 1 M-0.3 -1.46 C26.37 -1.59, 132.11 -0.59, 158.64 -0.6" stroke="#1e1e1e" stroke-width="1" fill="none"></path></g><g transform="translate(1728.5604536983265 892.6409404164567) rotate(0 79.71540011560955 -0.23661446743744818)"><path d="M129.95 9.08 C138.38 6.75, 143.92 5.55, 157.17 1.24 M130.61 10.22 C138.4 6.82, 145.17 4.42, 159.23 -0.92" stroke="#1e1e1e" stroke-width="1" fill="none"></path></g><g transform="translate(1728.5604536983265 892.6409404164567) rotate(0 79.71540011560955 -0.23661446743744818)"><path d="M130.05 -11.44 C138.45 -9.18, 143.96 -5.81, 157.17 1.24 M130.71 -10.3 C138.62 -8.38, 145.37 -5.47, 159.23 -0.92" stroke="#1e1e1e" stroke-width="1" fill="none"></path></g></g><mask></mask><g stroke-linecap="round" transform="translate(1917.2858745482954 692.578448334559) rotate(0 291.2745791500306 185.35482849277128)"><path d="M32.05 1.79 L549.33 -0.76 L559.64 -0.69 L570.46 4.71 L578.76 13.51 L581.28 19.36 L581.26 32.78 L582.74 337.59 L583.27 346.33 L577.68 356.78 L568.33 364.87 L564.83 368.61 L550.83 372.38 L31.71 370.64 L22.5 370.22 L12.38 367.55 L3.09 356.41 L1.15 353.17 L1.58 337.08 L0.21 31.24 L0.86 18.26 L6.16 9.23 L16.72 3.28 L32.46 -0.36" stroke="none" stroke-width="0" fill="#ffec99"></path><path d="M32 0 M32 0 C234.64 1.55, 435.57 1.83, 550.55 0 M32 0 C151.49 -0.9, 269.99 -1.03, 550.55 0 M550.55 0 C571.41 -1.85, 583 9.8, 582.55 32 M550.55 0 C572.62 1.61, 580.85 9.31, 582.55 32 M582.55 32 C581.3 105, 581.85 177.27, 582.55 338.71 M582.55 32 C581.21 114.78, 581.82 198.92, 582.55 338.71 M582.55 338.71 C581.95 360.37, 572.52 369.59, 550.55 370.71 M582.55 338.71 C583.66 359.44, 570.25 372.26, 550.55 370.71 M550.55 370.71 C352.43 369.83, 153.11 370.49, 32 370.71 M550.55 370.71 C367.96 369.97, 184.92 370.18, 32 370.71 M32 370.71 C9.83 372.07, 0.32 358.27, 0 338.71 M32 370.71 C10.68 369.2, 1.61 357.82, 0 338.71 M0 338.71 C-1.65 225.7, -1.66 111.63, 0 32 M0 338.71 C0.92 253.45, 1.22 169.34, 0 32 M0 32 C-1.88 9.23, 9.7 -1.59, 32 0 M0 32 C-0.89 8.87, 10.82 0.96, 32 0" stroke="#1e1e1e" stroke-width="1" fill="none"></path></g><g transform="translate(2097.6042140076133 635.3271088461454) rotate(0 144.744140625 16.09999999999991)"><text x="0" y="0" font-family="Helvetica, Segoe UI Emoji" font-size="28px" fill="#1e1e1e" text-anchor="start" style="white-space: pre;" direction="ltr" dominant-baseline="text-before-edge">/pedidos/lista/idUsuario</text></g><g stroke-linecap="round" transform="translate(1962.3406065502495 756.4163693365183) rotate(0 229.99481815955323 30.00120448382586)"><path d="M16.59 -1.19 L448.92 0.45 L454.84 3.12 L459.78 9.8 L458.46 49.3 L458.07 53.02 L455.35 58.01 L444.62 58.58 L9.76 58.43 L6.14 57.8 L1.22 53.23 L-0.29 14.93 L-1.06 8.45 L3.63 5.09 L7.03 -0.86 L14.15 0.46" stroke="none" stroke-width="0" fill="#a5d8ff"></path><path d="M15 0 M15 0 C177.6 -0.82, 341.12 -1.18, 444.99 0 M15 0 C170.61 -1.51, 326.45 -1.31, 444.99 0 M444.99 0 C453.93 1.28, 461.11 3.29, 459.99 15 M444.99 0 C457.09 -1.62, 457.79 6.36, 459.99 15 M459.99 15 C461.2 26.09, 458.39 38.56, 459.99 45 M459.99 15 C459.35 22.1, 459.47 29.56, 459.99 45 M459.99 45 C459.57 55.8, 454.96 61.57, 444.99 60 M459.99 45 C458.75 54.34, 453.53 61.43, 444.99 60 M444.99 60 C312.55 61.78, 179.05 62.42, 15 60 M444.99 60 C339.78 59.77, 235.73 59.69, 15 60 M15 60 C4.68 61.3, -1.37 54.59, 0 45 M15 60 C5.31 61.21, 1.61 54.06, 0 45 M0 45 C1.52 33.56, 1.28 24.11, 0 15 M0 45 C0.7 37.69, 0.72 32.98, 0 15 M0 15 C-1.87 4.76, 6.7 -0.25, 15 0 M0 15 C2.2 4.47, 4.24 2.3, 15 0" stroke="#1e1e1e" stroke-width="1" fill="none"></path></g><g transform="translate(2073.2739012723023 770.3175738203443) rotate(0 119.0615234375 16.09999999999991)"><text x="119.0615234375" y="0" font-family="Helvetica, Segoe UI Emoji" font-size="28px" fill="#1e1e1e" text-anchor="middle" style="white-space: pre;" direction="ltr" dominant-baseline="text-before-edge">Compra de usuario</text></g><g stroke-linecap="round" transform="translate(1968.5656355387719 847.6397359326313) rotate(0 229.99481815955323 30.00120448382586)"><path d="M14.12 0.93 L449.76 -0.85 L452.96 0.65 L459.17 7.25 L460.76 50.3 L459.59 53.91 L453.71 56.47 L446.78 60.85 L9.61 60.96 L7.59 59.43 L2.77 49.85 L0.54 16.66 L2.46 7.31 L2.59 5.18 L10.08 1.29 L13.91 1.44" stroke="none" stroke-width="0" fill="#a5d8ff"></path><path d="M15 0 M15 0 C148.67 -0.14, 284.51 0.07, 444.99 0 M15 0 C109.86 -2.43, 204.44 -1.92, 444.99 0 M444.99 0 C453.71 0.75, 461.86 5.5, 459.99 15 M444.99 0 C453.02 -0.12, 460.96 7.04, 459.99 15 M459.99 15 C460.04 22.17, 460.12 30.11, 459.99 45 M459.99 15 C459.9 23.88, 459.79 33.43, 459.99 45 M459.99 45 C461.59 55.76, 453.31 60.13, 444.99 60 M459.99 45 C460.45 54.76, 454.23 60.94, 444.99 60 M444.99 60 C321.33 60.48, 200.21 59.67, 15 60 M444.99 60 C288.37 60.18, 132.36 59.59, 15 60 M15 60 C6.12 61.49, 1.6 53.37, 0 45 M15 60 C2.79 59.15, -0.68 55.86, 0 45 M0 45 C1.25 38.04, 0.88 28.85, 0 15 M0 45 C0.55 34.8, 0.06 25.73, 0 15 M0 15 C-1.27 4.67, 5.35 -1.35, 15 0 M0 15 C1.58 2.93, 3.6 -0.41, 15 0" stroke="#1e1e1e" stroke-width="1" fill="none"></path></g><g transform="translate(2030.2271203649934 709.3076070831232) rotate(0 122.9716796875 16.09999999999991)"><text x="0" y="0" font-family="Helvetica, Segoe UI Emoji" font-size="28px" fill="#1e1e1e" text-anchor="start" style="white-space: pre;" direction="ltr" dominant-baseline="text-before-edge">Pedidos del usuario</text></g><g stroke-linecap="round" transform="translate(1971.8989688721067 937.6397359326313) rotate(0 229.99481815955323 30.00120448382586)"><path d="M14 -0.57 L447.9 1.82 L455.04 3.83 L459.31 7.05 L461.72 47.17 L459.45 54.71 L455.02 58.07 L444.23 59.19 L12.24 61.63 L7.41 57.75 L1.97 52.46 L1.14 16.58 L2.51 8.54 L2.79 4.75 L7 0.85 L15.65 0.36" stroke="none" stroke-width="0" fill="#a5d8ff"></path><path d="M15 0 M15 0 C156.85 0.62, 298.81 -0.51, 444.99 0 M15 0 C145.01 0.43, 275.48 -0.08, 444.99 0 M444.99 0 C456.32 -0.78, 460.17 6.46, 459.99 15 M444.99 0 C454.56 1.17, 461.63 6.45, 459.99 15 M459.99 15 C458.03 27.05, 460.79 39.19, 459.99 45 M459.99 15 C460.38 26.62, 459.22 39.19, 459.99 45 M459.99 45 C460.93 54.19, 456.02 61.02, 444.99 60 M459.99 45 C460.36 54.72, 453.98 61.61, 444.99 60 M444.99 60 C316.15 59.39, 188.05 58.3, 15 60 M444.99 60 C341.71 61.69, 238 61.79, 15 60 M15 60 C6.79 58.48, 0.67 55.59, 0 45 M15 60 C4.1 62, 1.7 56.47, 0 45 M0 45 C0.45 34.59, 0.52 22.11, 0 15 M0 45 C-0.19 34.46, 0.33 22.43, 0 15 M0 15 C0.18 3.03, 5.35 0.28, 15 0 M0 15 C0.26 5.57, 6.01 -2.15, 15 0" stroke="#1e1e1e" stroke-width="1" fill="none"></path></g><g stroke-linecap="round" transform="translate(1245.063684843727 1556.7306049790257) rotate(0 214.6079124833641 146.18816182610476)"><path d="M33.51 -1.92 L397.32 0.29 L404.7 -0.68 L418.23 4.8 L425.92 14.43 L427.6 16.65 L427.22 30.45 L428.56 261.94 L429.53 267.64 L423.38 279.49 L418.44 289.54 L411.42 290.15 L395.62 292.67 L31.49 293.75 L22.69 292.06 L14.14 288.02 L2.52 278.1 L3.41 274.53 L0.46 260.07 L-0.32 26.37 L3.7 16.24 L8.97 6.13 L17.56 1.9 L30.4 -1.84" stroke="none" stroke-width="0" fill="#ffec99"></path><path d="M32 0 M32 0 C168.56 -0.48, 304.76 -1.56, 397.22 0 M32 0 C145.89 -2.04, 258.55 -1.83, 397.22 0 M397.22 0 C416.56 1.24, 428.83 10.59, 429.22 32 M397.22 0 C419.68 -0.71, 427.38 10.39, 429.22 32 M429.22 32 C429.11 95.35, 429.85 157.14, 429.22 260.38 M429.22 32 C430.37 97.49, 429.43 164.89, 429.22 260.38 M429.22 260.38 C427.57 282.76, 420.14 292.54, 397.22 292.38 M429.22 260.38 C429.02 283.78, 417.93 293.35, 397.22 292.38 M397.22 292.38 C315.81 292.37, 233.16 292.71, 32 292.38 M397.22 292.38 C306.35 292.71, 214.31 291.87, 32 292.38 M32 292.38 C8.89 294.36, 0.33 280.84, 0 260.38 M32 292.38 C12.62 293.67, 1.85 280.4, 0 260.38 M0 260.38 C0.47 200.89, 2.46 141, 0 32 M0 260.38 C-0.69 209.08, -1.01 157.1, 0 32 M0 32 C-1.93 10.71, 9.62 0, 32 0 M0 32 C-1.53 12.35, 10.78 0.69, 32 0" stroke="#1e1e1e" stroke-width="1" fill="none"></path></g><g stroke-linecap="round" transform="translate(1283.0101125008714 1619.8620271637835) rotate(0 169.16148482621975 25.00120448382586)"><path d="M11.04 1.24 L330.04 1.41 L334.6 2.22 L338.26 5.1 L338.17 39.39 L336.56 43.79 L334.91 48.34 L326.42 48.22 L9.65 50.69 L5.25 49.78 L-0.3 42.92 L1.49 11.55 L4.49 4.69 L11.08 -1.16" stroke="none" stroke-width="0" fill="#ffec99"></path><path d="M12.5 0 M12.5 0 C93.02 1.99, 176.63 2.18, 325.82 0 M12.5 0 C132.71 -0.28, 252.32 -0.83, 325.82 0 M325.82 0 C333.53 -1, 339.44 2.53, 338.32 12.5 M325.82 0 C334.38 0.08, 340.24 3.67, 338.32 12.5 M338.32 12.5 C337.17 21.57, 338.64 27.35, 338.32 37.5 M338.32 12.5 C338.74 21.31, 337.85 28.81, 338.32 37.5 M338.32 37.5 C339.28 45.2, 334.7 48.8, 325.82 50 M338.32 37.5 C337.01 44.13, 333.25 51.01, 325.82 50 M325.82 50 C256.96 47.89, 186.46 48.49, 12.5 50 M325.82 50 C235.3 51.64, 145.43 51.67, 12.5 50 M12.5 50 C5.16 49.69, 0.57 45.5, 0 37.5 M12.5 50 C3.41 49.06, 0.15 43.74, 0 37.5 M0 37.5 C1.87 32.59, -0.19 25.56, 0 12.5 M0 37.5 C-0.52 29.25, 0.63 18.53, 0 12.5 M0 12.5 C-1.01 6.03, 3.56 0.28, 12.5 0 M0 12.5 C0.33 5.35, 5.63 0.48, 12.5 0" stroke="#1e1e1e" stroke-width="1" fill="none"></path></g><g transform="translate(1396.9030426395911 1628.7632316476095) rotate(0 55.2685546875 16.09999999999991)"><text x="55.2685546875" y="0" font-family="Helvetica, Segoe UI Emoji" font-size="28px" fill="#1e1e1e" text-anchor="middle" style="white-space: pre;" direction="ltr" dominant-baseline="text-before-edge">Pedido 1</text></g><g transform="translate(1319.6715973270911 1574.029879836836) rotate(0 140.095703125 16.09999999999991)"><text x="0" y="0" font-family="Helvetica, Segoe UI Emoji" font-size="28px" fill="#1e1e1e" text-anchor="start" style="white-space: pre;" direction="ltr" dominant-baseline="text-before-edge">Pedidos del proveedor</text></g><g stroke-linecap="round" transform="translate(1283.8434458342053 1689.0286753530102) rotate(0 169.16148482621975 25.00120448382586)"><path d="M12.33 0.71 L327.17 -1.28 L332.93 2.69 L339.11 8.44 L340.07 38.51 L336.51 43.49 L333.6 48.1 L325.54 48.92 L9.06 49.37 L4.28 46.41 L2.4 43.14 L1.88 13.39 L3.79 1.35 L10.96 1.46" stroke="none" stroke-width="0" fill="#ffec99"></path><path d="M12.5 0 M12.5 0 C91.75 -1.1, 171.96 -0.26, 325.82 0 M12.5 0 C134.12 0.35, 256.64 1.35, 325.82 0 M325.82 0 C334.43 -1.3, 339.04 4.14, 338.32 12.5 M325.82 0 C335.93 1.26, 336.04 6.12, 338.32 12.5 M338.32 12.5 C336.89 19.35, 336.96 28.31, 338.32 37.5 M338.32 12.5 C337.57 19.55, 338.02 25.73, 338.32 37.5 M338.32 37.5 C338.46 47.55, 333.88 48.44, 325.82 50 M338.32 37.5 C336.2 43.57, 332.65 51.41, 325.82 50 M325.82 50 C242.42 49.45, 158.36 50.81, 12.5 50 M325.82 50 C203.72 51.79, 81.97 51.22, 12.5 50 M12.5 50 C4.49 49.23, 1.22 45.07, 0 37.5 M12.5 50 C6.18 49.04, -1.81 45.38, 0 37.5 M0 37.5 C1.78 32.16, -0.25 28.59, 0 12.5 M0 37.5 C-0.71 30.15, 0.33 21.74, 0 12.5 M0 12.5 C-0.67 3.4, 2.31 0.04, 12.5 0 M0 12.5 C1.68 1.97, 4.52 0.71, 12.5 0" stroke="#1e1e1e" stroke-width="1" fill="none"></path></g><g transform="translate(1397.736375972925 1697.929879836836) rotate(0 55.2685546875 16.09999999999991)"><text x="55.2685546875" y="0" font-family="Helvetica, Segoe UI Emoji" font-size="28px" fill="#1e1e1e" text-anchor="middle" style="white-space: pre;" direction="ltr" dominant-baseline="text-before-edge">Pedido 2</text></g><g stroke-linecap="round" transform="translate(1283.8434458342053 1752.3620086863432) rotate(0 169.16148482621975 25.00120448382586)"><path d="M10.51 1.69 L329.17 1.95 L334.77 0.11 L336.36 5.45 L337.88 39.93 L335.57 43.6 L332.18 48.59 L325.46 48.95 L9.71 51.52 L4.61 46.69 L-1.06 41 L-1.31 13.73 L2.5 4.5 L12.79 1.18" stroke="none" stroke-width="0" fill="#ffec99"></path><path d="M12.5 0 M12.5 0 C88.51 -1, 163.06 -0.48, 325.82 0 M12.5 0 C110.28 1.27, 208.26 1.28, 325.82 0 M325.82 0 C335.9 -0.84, 336.75 3.77, 338.32 12.5 M325.82 0 C332.22 -2.25, 336.3 5.93, 338.32 12.5 M338.32 12.5 C338.73 21.41, 339.06 26.54, 338.32 37.5 M338.32 12.5 C338.11 21.45, 337.52 31.19, 338.32 37.5 M338.32 37.5 C339.78 43.92, 334.47 50.62, 325.82 50 M338.32 37.5 C338.34 45.79, 333.46 48.06, 325.82 50 M325.82 50 C260.89 49.02, 198.61 50.93, 12.5 50 M325.82 50 C228.88 49.51, 133.43 50.05, 12.5 50 M12.5 50 C4.25 50.14, 0.33 46.36, 0 37.5 M12.5 50 C3.48 50.67, -0.69 46.26, 0 37.5 M0 37.5 C-1.5 32.51, 2.05 26.17, 0 12.5 M0 37.5 C-0.48 27.3, 0.77 18.72, 0 12.5 M0 12.5 C1.81 2.8, 3.29 0.31, 12.5 0 M0 12.5 C-0.78 2.8, 5.34 -1.36, 12.5 0" stroke="#1e1e1e" stroke-width="1" fill="none"></path></g><g transform="translate(1397.736375972925 1761.2632131701691) rotate(0 55.2685546875 16.09999999999991)"><text x="55.2685546875" y="0" font-family="Helvetica, Segoe UI Emoji" font-size="28px" fill="#1e1e1e" text-anchor="middle" style="white-space: pre;" direction="ltr" dominant-baseline="text-before-edge">Pedido 3</text></g><g stroke-linecap="round"><g transform="translate(1449.3938235891846 1851.2520786807938) rotate(0 -1.1234346844521497 91.29101348514541)"><path d="M0.02 -0.69 C-0.14 29.52, -1.19 151.34, -1.44 181.71 M-1.43 1.57 C-1.68 31.95, -2.16 153.07, -2.27 183.27" stroke="#1e1e1e" stroke-width="1" fill="none"></path></g><g transform="translate(1449.3938235891846 1851.2520786807938) rotate(0 -1.1234346844521497 91.29101348514541)"><path d="M-13.56 155.42 C-9.62 162.68, -7.32 168.86, -1.44 183.46 M-12.23 154.19 C-9.11 163.85, -5.82 174.73, -1.93 183.86" stroke="#1e1e1e" stroke-width="1" fill="none"></path></g><g transform="translate(1449.3938235891846 1851.2520786807938) rotate(0 -1.1234346844521497 91.29101348514541)"><path d="M6.96 155.5 C5.6 162.75, 2.62 168.9, -1.44 183.46 M8.3 154.27 C4.3 163.88, 0.49 174.73, -1.93 183.86" stroke="#1e1e1e" stroke-width="1" fill="none"></path></g></g><mask></mask><g transform="translate(1487.7271569225177 1927.9187453474608) rotate(0 76.26171875 16.09999999999991)"><text x="0" y="0" font-family="Helvetica, Segoe UI Emoji" font-size="28px" fill="#1e1e1e" text-anchor="start" style="white-space: pre;" direction="ltr" dominant-baseline="text-before-edge">Click pedido</text></g><g stroke-linecap="round" transform="translate(1244.7859124965962 2048.3972501880226) rotate(0 214.6079124833641 146.188161826105)"><path d="M33.06 0.03 L399.15 1.11 L405.21 0.71 L415.05 3.4 L423.6 12.05 L427.4 18.54 L428.82 31.53 L427.87 261.06 L428.38 269.84 L423.3 278.23 L418.41 288.97 L409.62 291.33 L399.16 291.86 L30.18 292.63 L22.81 291.99 L12.12 288.29 L2.78 278.19 L0.03 276.33 L-1.01 262.17 L-1.14 26.27 L1.2 16.64 L7.17 9.15 L17.29 3.33 L32.67 1.73" stroke="none" stroke-width="0" fill="#ffec99"></path><path d="M32 0 M32 0 C165.68 -0.28, 297.39 -1.63, 397.22 0 M32 0 C122.89 1.81, 213.74 1.8, 397.22 0 M397.22 0 C416.73 -1.75, 430.23 11.38, 429.22 32 M397.22 0 C417.22 -1.45, 428.5 11.96, 429.22 32 M429.22 32 C428.42 94.14, 428.29 158.3, 429.22 260.38 M429.22 32 C430.53 101.19, 430.13 171.7, 429.22 260.38 M429.22 260.38 C428.44 280.72, 419.92 293.46, 397.22 292.38 M429.22 260.38 C429.07 281.34, 418.37 291.35, 397.22 292.38 M397.22 292.38 C292.26 292.63, 188.22 292.06, 32 292.38 M397.22 292.38 C279.37 291.87, 161.63 291.47, 32 292.38 M32 292.38 C11.22 293.32, 1.61 282.65, 0 260.38 M32 292.38 C12.06 291.54, 0.63 282.87, 0 260.38 M0 260.38 C-0.78 210.98, -0.02 158.21, 0 32 M0 260.38 C1.68 197.23, 1.96 133.03, 0 32 M0 32 C-0.93 12.59, 9.27 0.13, 32 0 M0 32 C2.15 11.89, 11.76 -0.23, 32 0" stroke="#1e1e1e" stroke-width="1" fill="none"></path></g><g transform="translate(1356.6428484174603 2162.385412014127) rotate(0 102.7509765625 32.200000000000045)"><text x="102.7509765625" y="0" font-family="Helvetica, Segoe UI Emoji" font-size="28px" fill="#1e1e1e" text-anchor="middle" style="white-space: pre;" direction="ltr" dominant-baseline="text-before-edge">Descripcin y </text><text x="102.7509765625" y="32.199999999999996" font-family="Helvetica, Segoe UI Emoji" font-size="28px" fill="#1e1e1e" text-anchor="middle" style="white-space: pre;" direction="ltr" dominant-baseline="text-before-edge">datos del pedido</text></g><g transform="translate(1407.7271583132924 2072.3631917125003) rotate(0 55.2685546875 16.09999999999991)"><text x="0" y="0" font-family="Helvetica, Segoe UI Emoji" font-size="28px" fill="#1e1e1e" text-anchor="start" style="white-space: pre;" direction="ltr" dominant-baseline="text-before-edge">Pedido 1</text></g><g stroke-linecap="round" transform="translate(1341.0604916466264 2265.1409616754454) rotate(0 112.5 27.5)"><path d="M14.79 -1.19 L214.79 1.22 L222.32 3 L224.24 9.04 L225.97 43.03 L222.25 51.99 L219.16 54.19 L210.7 56.83 L10.61 55.49 L4.77 54.43 L-0.57 48.81 L1.15 12.99 L2.65 7.71 L2.42 3.48 L7.55 2.62 L14.5 0.72" stroke="none" stroke-width="0" fill="#a5d8ff"></path><path d="M13.75 0 M13.75 0 C75.02 0.7, 139.41 -0.18, 211.25 0 M13.75 0 C68.45 2.01, 121.3 0.9, 211.25 0 M211.25 0 C222.26 -1.26, 223.18 6.07, 225 13.75 M211.25 0 C218.64 -1.79, 224.4 6.55, 225 13.75 M225 13.75 C225.19 21.6, 223 32.92, 225 41.25 M225 13.75 C225.87 24.31, 224.47 34.45, 225 41.25 M225 41.25 C224.33 49.57, 219.82 56.43, 211.25 55 M225 41.25 C226.71 48.49, 222.15 54.65, 211.25 55 M211.25 55 C170.26 55.99, 133.04 54.42, 13.75 55 M211.25 55 C151.15 52.53, 90.92 52.63, 13.75 55 M13.75 55 C5.41 54.94, 0.15 51.99, 0 41.25 M13.75 55 C4.11 54.77, 1.1 49.83, 0 41.25 M0 41.25 C0.68 33.66, -0.05 23.52, 0 13.75 M0 41.25 C-0.05 35.92, -0.39 27.98, 0 13.75 M0 13.75 C0.89 5.07, 3.23 -0.53, 13.75 0 M0 13.75 C1.08 5.02, 2.49 0.37, 13.75 0" stroke="#1e1e1e" stroke-width="1" fill="none"></path></g><g transform="translate(1359.3817807091264 2276.540961675445) rotate(0 94.1787109375 16.09999999999991)"><text x="94.1787109375" y="0" font-family="Helvetica, Segoe UI Emoji" font-size="28px" fill="#1e1e1e" text-anchor="middle" style="white-space: pre;" direction="ltr" dominant-baseline="text-before-edge">Aceptar pedido</text></g><g stroke-linecap="round"><g transform="translate(1423.9647656905427 2344.863173036376) rotate(0 -0.26543434362929474 43.956569558749834)"><path d="M0.36 0.16 C0.51 14.56, -0.02 72.57, -0.26 87.12 M-0.92 -0.8 C-0.73 13.75, -0.54 74.35, -0.68 88.71" stroke="#1e1e1e" stroke-width="1" fill="none"></path></g><g transform="translate(1423.9647656905427 2344.863173036376) rotate(0 -0.26543434362929474 43.956569558749834)"><path d="M-10.61 62.19 C-8.51 66.45, -5.86 70.3, -2.38 89.29 M-10.64 60.49 C-8.94 66.82, -6.87 71.93, -0.32 89.6" stroke="#1e1e1e" stroke-width="1" fill="none"></path></g><g transform="translate(1423.9647656905427 2344.863173036376) rotate(0 -0.26543434362929474 43.956569558749834)"><path d="M9.91 62.23 C7.89 66.54, 6.42 70.39, -2.38 89.29 M9.88 60.53 C7.34 66.79, 5.18 71.9, -0.32 89.6" stroke="#1e1e1e" stroke-width="1" fill="none"></path></g></g><mask></mask><g transform="translate(2057.449354177018 1924.8631857520334) rotate(0 141.6337890625 16.09999999999991)"><text x="0" y="0" font-family="Helvetica, Segoe UI Emoji" font-size="28px" fill="#1e1e1e" text-anchor="start" style="white-space: pre;" direction="ltr" dominant-baseline="text-before-edge">repartidor/lista/pedidos</text></g><g stroke-linecap="round" transform="translate(1876.7303111779129 2001.730581137166) rotate(0 266.2745791500306 146.18816182610476)"><path d="M32.79 -0.79 L502.39 1.63 L507.3 -0.25 L522.04 3.76 L527.6 12.17 L531.75 16.13 L531.77 32.61 L532.73 258.56 L532.2 267.68 L528.06 280.87 L520.68 288.52 L512.71 292.12 L499.84 292.51 L32.47 293.63 L23.67 292.78 L13.64 289.86 L4.16 279.09 L0.78 274.35 L0.55 261.32 L0.83 25.44 L3.98 19.6 L9.14 8.19 L18.48 0.31 L32.92 -1.33" stroke="none" stroke-width="0" fill="#ffec99"></path><path d="M32 0 M32 0 C194.11 0.54, 357.42 -0.6, 500.55 0 M32 0 C201.28 -0.63, 370.35 -0.21, 500.55 0 M500.55 0 C523.02 0.63, 534.16 10.67, 532.55 32 M500.55 0 C522.57 -1.97, 530.87 10.43, 532.55 32 M532.55 32 C532.43 114.93, 530.65 197.22, 532.55 260.38 M532.55 32 C531.69 121.54, 531.52 211.99, 532.55 260.38 M532.55 260.38 C532.41 280.8, 520.98 290.91, 500.55 292.38 M532.55 260.38 C532.58 281.46, 521.72 291.86, 500.55 292.38 M500.55 292.38 C341.78 293.68, 181.58 293.99, 32 292.38 M500.55 292.38 C370.62 291.17, 239.73 291.33, 32 292.38 M32 292.38 C9.08 293.82, -0.19 280.12, 0 260.38 M32 292.38 C11.45 294.56, 0.25 281.37, 0 260.38 M0 260.38 C1.1 208.36, 2.29 160.16, 0 32 M0 260.38 C1.59 178.27, 0.99 97.36, 0 32 M0 32 C-1.3 10.58, 9.54 -1.2, 32 0 M0 32 C0.7 11.75, 8.8 0.01, 32 0" stroke="#1e1e1e" stroke-width="1" fill="none"></path></g><g transform="translate(1963.0048903279421 2022.918742963271) rotate(0 193.798828125 16.09999999999991)"><text x="0" y="0" font-family="Helvetica, Segoe UI Emoji" font-size="28px" fill="#1e1e1e" text-anchor="start" style="white-space: pre;" direction="ltr" dominant-baseline="text-before-edge">Lista de pedidos para entregar </text></g><g stroke-linecap="round" transform="translate(1953.4267388350545 2080.2786595577772) rotate(0 169.16148482621975 25.00120448382586)"><path d="M10.79 1.91 L329.03 2.17 L332.55 1.97 L335.73 5.55 L338.64 42.24 L338 46.38 L334.85 49.84 L324.59 50.28 L7.97 48.64 L5.46 46.28 L2.44 44.16 L-1.14 13.87 L2.13 3.81 L11.76 1.5" stroke="none" stroke-width="0" fill="#b2f2bb"></path><path d="M12.5 0 M12.5 0 C103.36 -1.58, 197.81 -0.41, 325.82 0 M12.5 0 C89.14 0.28, 163.99 0.03, 325.82 0 M325.82 0 C333.59 -0.7, 338.84 2.52, 338.32 12.5 M325.82 0 C333.83 0.8, 340.16 2.11, 338.32 12.5 M338.32 12.5 C339.96 16.88, 339.25 22.1, 338.32 37.5 M338.32 12.5 C337.94 21.05, 337.73 29.46, 338.32 37.5 M338.32 37.5 C339.75 45.74, 334.09 51.24, 325.82 50 M338.32 37.5 C336.65 46.8, 334.07 51.57, 325.82 50 M325.82 50 C256.81 51.59, 190.29 50.35, 12.5 50 M325.82 50 C239.37 49.06, 153.25 49.18, 12.5 50 M12.5 50 C4.04 48.6, -0.72 47.37, 0 37.5 M12.5 50 C6.26 48.08, -1.14 45.41, 0 37.5 M0 37.5 C-0.41 32.19, -1.73 26.19, 0 12.5 M0 37.5 C-0.55 30.44, -0.37 21.49, 0 12.5 M0 12.5 C-0.03 2.76, 2.62 1.68, 12.5 0 M0 12.5 C-1.87 4.79, 2.87 -1.07, 12.5 0" stroke="#1e1e1e" stroke-width="1" fill="none"></path></g><g transform="translate(1987.9270908487742 2089.1798640416027) rotate(0 134.6611328125 16.09999999999991)"><text x="134.6611328125" y="0" font-family="Helvetica, Segoe UI Emoji" font-size="28px" fill="#1e1e1e" text-anchor="middle" style="white-space: pre;" direction="ltr" dominant-baseline="text-before-edge">Pedido para entrega1</text></g><g stroke-linecap="round" transform="translate(1947.4545151558323 2146.5286503190573) rotate(0 169.16148482621975 25.00120448382586)"><path d="M11.73 0.21 L330.24 -0.29 L333.82 2.96 L339.17 8.22 L337.96 41.62 L335.75 45.04 L331.67 48.64 L324.43 51.12 L11.39 49.2 L6.84 46.79 L-0.74 42.13 L0.94 10.86 L4.85 4.15 L13.36 -0.92" stroke="none" stroke-width="0" fill="#b2f2bb"></path><path d="M12.5 0 M12.5 0 C85.6 -2.09, 158.04 -0.08, 325.82 0 M12.5 0 C94.61 2.52, 176.66 2.45, 325.82 0 M325.82 0 C335.36 -1.27, 337.44 3.14, 338.32 12.5 M325.82 0 C332.42 -1.13, 338.86 2.49, 338.32 12.5 M338.32 12.5 C338.31 17.13, 338.79 25.92, 338.32 37.5 M338.32 12.5 C338.35 19.31, 338.63 27.79, 338.32 37.5 M338.32 37.5 C339.59 47.6, 333.98 50.17, 325.82 50 M338.32 37.5 C339.51 43.88, 336.31 50.97, 325.82 50 M325.82 50 C230.15 50.37, 131.51 48.64, 12.5 50 M325.82 50 C247.85 51.63, 169.71 51.23, 12.5 50 M12.5 50 C5.94 50.08, -0.13 47.8, 0 37.5 M12.5 50 C1.95 50.96, 0 45.41, 0 37.5 M0 37.5 C-0.24 33.24, -0.57 25.95, 0 12.5 M0 37.5 C0.61 32.41, 0.6 25.94, 0 12.5 M0 12.5 C0.08 4.06, 3.19 -1.97, 12.5 0 M0 12.5 C-2.21 5.88, 2.13 0.83, 12.5 0" stroke="#1e1e1e" stroke-width="1" fill="none"></path></g><g transform="translate(1978.065218732052 2155.429854802883) rotate(0 138.55078125 16.09999999999991)"><text x="138.55078125" y="0" font-family="Helvetica, Segoe UI Emoji" font-size="28px" fill="#1e1e1e" text-anchor="middle" style="white-space: pre;" direction="ltr" dominant-baseline="text-before-edge">Pedido para entrega 2</text></g><g stroke-linecap="round" transform="translate(1942.4545151558323 2211.5286503190573) rotate(0 169.16148482621975 25.00120448382586)"><path d="M11.61 -1.03 L327.24 -0.79 L333.9 0.3 L336.29 6.28 L338.56 40.52 L335.25 45.68 L334.97 48.18 L326.43 50.49 L9.46 48.6 L5.35 49.18 L2.04 44.73 L-0.18 12.67 L4.16 1.42 L14.38 0.84" stroke="none" stroke-width="0" fill="#b2f2bb"></path><path d="M12.5 0 M12.5 0 C111 1.62, 206.53 -0.11, 325.82 0 M12.5 0 C90.83 -1.88, 168.99 -2.28, 325.82 0 M325.82 0 C335.93 0.08, 338.19 6.13, 338.32 12.5 M325.82 0 C331.94 0.96, 338.32 3.74, 338.32 12.5 M338.32 12.5 C337.78 19.13, 337.46 22.72, 338.32 37.5 M338.32 12.5 C338.63 18.31, 338.61 22.73, 338.32 37.5 M338.32 37.5 C338.4 45.73, 333.18 48.03, 325.82 50 M338.32 37.5 C336.11 47.55, 332.12 50.83, 325.82 50 M325.82 50 C205.14 51.14, 81.83 51.51, 12.5 50 M325.82 50 C214.64 47.41, 102.66 48.32, 12.5 50 M12.5 50 C4.18 51.59, 0.29 45.26, 0 37.5 M12.5 50 C5.86 49.73, 0.76 47.93, 0 37.5 M0 37.5 C0.02 30.99, 0.91 20.19, 0 12.5 M0 37.5 C-0.27 30.85, 0.12 23.83, 0 12.5 M0 12.5 C0.11 3.59, 2.31 -1.64, 12.5 0 M0 12.5 C1.06 3.68, 4.62 0.32, 12.5 0" stroke="#1e1e1e" stroke-width="1" fill="none"></path></g><g transform="translate(1973.065218732052 2220.4298548028837) rotate(0 138.55078125 16.09999999999991)"><text x="138.55078125" y="0" font-family="Helvetica, Segoe UI Emoji" font-size="28px" fill="#1e1e1e" text-anchor="middle" style="white-space: pre;" direction="ltr" dominant-baseline="text-before-edge">Pedido para entrega 3</text></g><g stroke-linecap="round"><g transform="translate(2410.2851234760283 2139.805640385185) rotate(359.2594944492579 114.66561958990087 1.1784783383432114)"><path d="M0.95 0.17 C39.09 0.69, 191.24 2.73, 229.34 3.14 M0 -0.78 C37.9 -0.59, 190.09 1.27, 228.21 1.48" stroke="#1e1e1e" stroke-width="1" fill="none"></path></g><g transform="translate(2410.2851234760283 2139.805640385185) rotate(359.2594944492579 114.66561958990087 1.1784783383432114)"><path d="M200.21 10.9 C211.06 7.6, 219.92 6.24, 228.75 3.3 M200.49 11 C205.44 8.62, 211.44 6.68, 228.15 1.46" stroke="#1e1e1e" stroke-width="1" fill="none"></path></g><g transform="translate(2410.2851234760283 2139.805640385185) rotate(359.2594944492579 114.66561958990087 1.1784783383432114)"><path d="M200.4 -9.62 C211.19 -5.9, 219.98 -0.25, 228.75 3.3 M200.68 -9.52 C205.62 -7.63, 211.58 -5.3, 228.15 1.46" stroke="#1e1e1e" stroke-width="1" fill="none"></path></g></g><mask></mask><g transform="translate(2429.949333315385 2086.529854802883) rotate(0 76.26171875 16.09999999999991)"><text x="0" y="0" font-family="Helvetica, Segoe UI Emoji" font-size="28px" fill="#1e1e1e" text-anchor="start" style="white-space: pre;" direction="ltr" dominant-baseline="text-before-edge">Click pedido</text></g><g stroke-linecap="round" transform="translate(2646.4525253203938 1988.6750263101105) rotate(0 266.2745791500306 146.18816182610476)"><path d="M30.4 1.77 L502.35 1.03 L509.2 1.09 L520.87 3.22 L528.75 14.03 L530.01 17.75 L534.35 33.46 L534.24 261.21 L533.67 266.78 L527.91 280.16 L521.73 289.85 L513.21 288.42 L500.43 292.81 L31.2 292.05 L23 293.54 L11.43 288.25 L4.68 278.54 L1.69 275.34 L-0.05 258.45 L0.2 24.39 L3.21 18.15 L9.54 9.21 L17.74 0.77 L32.17 -1.37" stroke="none" stroke-width="0" fill="#ffec99"></path><path d="M32 0 M32 0 C165.04 1.84, 299.16 1.83, 500.55 0 M32 0 C187.46 -0.96, 342.69 -0.87, 500.55 0 M500.55 0 C520.92 -0.04, 534.33 10.26, 532.55 32 M500.55 0 C520.98 0.13, 532.77 10.63, 532.55 32 M532.55 32 C532.8 121.92, 532.02 209.62, 532.55 260.38 M532.55 32 C533.7 115.15, 532.88 196.73, 532.55 260.38 M532.55 260.38 C533.97 280.21, 520.07 292.69, 500.55 292.38 M532.55 260.38 C530.6 281.68, 522.31 291.53, 500.55 292.38 M500.55 292.38 C383.67 292.62, 265.34 293.15, 32 292.38 M500.55 292.38 C325.38 293.7, 150.21 293.41, 32 292.38 M32 292.38 C12 291.39, -1.3 281.54, 0 260.38 M32 292.38 C12.56 290.33, -0.26 279.51, 0 260.38 M0 260.38 C1.56 210.46, 1.12 158.59, 0 32 M0 260.38 C-1.4 189.63, -1.31 119.47, 0 32 M0 32 C0.43 12.18, 9.81 0.05, 32 0 M0 32 C1.16 11.75, 10.53 1.08, 32 0" stroke="#1e1e1e" stroke-width="1" fill="none"></path></g><g transform="translate(2749.9493511967776 2012.3631756192415) rotate(0 143.212890625 16.09999999999991)"><text x="0" y="0" font-family="Helvetica, Segoe UI Emoji" font-size="28px" fill="#1e1e1e" text-anchor="start" style="white-space: pre;" direction="ltr" dominant-baseline="text-before-edge">Pedido para entregar 1</text></g><g transform="translate(2703.2826845301106 2087.3631756192417) rotate(0 218.6953125 16.09999999999991)"><text x="0" y="0" font-family="Helvetica, Segoe UI Emoji" font-size="28px" fill="#1e1e1e" text-anchor="start" style="white-space: pre;" direction="ltr" dominant-baseline="text-before-edge">Informacin de pedido por entregar</text></g><g stroke-linecap="round" transform="translate(2799.0604632350687 2207.2520649717217) rotate(0 87 29)"><path d="M14.91 0.64 L167.36 2.11 L169.26 5.13 L172.83 12.37 L171.93 51.18 L168.91 56.35 L158.87 57.7 L6.51 57.02 L3.57 56.17 L1.28 45.8 L0.61 9.53 L3.71 7.6 L6.58 0.09 L16.13 -0.72" stroke="none" stroke-width="0" fill="#a5d8ff"></path><path d="M14.5 0 M14.5 0 C43.24 1.91, 74.46 -0.02, 159.5 0 M14.5 0 C44.77 0.35, 74.53 0.33, 159.5 0 M159.5 0 C169.13 1.88, 172.6 3.08, 174 14.5 M159.5 0 C167.7 1.77, 175.3 4.96, 174 14.5 M174 14.5 C175.44 23.93, 174.3 36.74, 174 43.5 M174 14.5 C173.38 22.58, 174.19 32.22, 174 43.5 M174 43.5 C172.04 51.18, 170.05 56.51, 159.5 58 M174 43.5 C174.96 53.76, 170.55 56.86, 159.5 58 M159.5 58 C119.05 56.42, 79.57 57.5, 14.5 58 M159.5 58 C117.46 56.98, 75.29 57.19, 14.5 58 M14.5 58 C5.85 58.32, 0.61 51.79, 0 43.5 M14.5 58 C3.44 57.5, -1.62 52.59, 0 43.5 M0 43.5 C1.2 33.27, 1.44 20.98, 0 14.5 M0 43.5 C-0.77 35.16, -0.81 29.09, 0 14.5 M0 14.5 C-1.81 5.56, 4.88 1.71, 14.5 0 M0 14.5 C1.75 3.97, 3.31 2.08, 14.5 0" stroke="#1e1e1e" stroke-width="1" fill="none"></path></g><g transform="translate(2837.1542132350687 2213.2520649717217) rotate(0 48.90625 23)"><text x="48.90625" y="0" font-family="Helvetica, Segoe UI Emoji" font-size="20px" fill="#1e1e1e" text-anchor="middle" style="white-space: pre;" direction="ltr" dominant-baseline="text-before-edge">Comenzar </text><text x="48.90625" y="23" font-family="Helvetica, Segoe UI Emoji" font-size="20px" fill="#1e1e1e" text-anchor="middle" style="white-space: pre;" direction="ltr" dominant-baseline="text-before-edge">entrega</text></g><g stroke-linecap="round" transform="translate(1224.5081800845674 2443.9527803784868) rotate(0 214.6079124833641 146.188161826105)"><path d="M32.58 -1.14 L396.96 1.91 L402.96 -1.47 L417.03 4.77 L423.16 13.26 L427.88 17.5 L430.97 33.1 L427.77 259.87 L429.86 266.63 L424.86 281.64 L418.66 286.91 L411.17 291.8 L399.09 293.27 L32.9 291.62 L23.51 292.77 L10.73 289.48 L4.33 281.1 L1.62 274.87 L-0.83 262.09 L1.58 26.06 L2.24 17.8 L7.02 8.06 L16.62 0.55 L30.21 0.86" stroke="none" stroke-width="0" fill="#ffec99"></path><path d="M32 0 M32 0 C109.17 -0.05, 187.26 1.05, 397.22 0 M32 0 C160.94 -2.65, 288.89 -2.6, 397.22 0 M397.22 0 C418.66 1.67, 427.31 10.1, 429.22 32 M397.22 0 C416.61 0.12, 430.05 12.52, 429.22 32 M429.22 32 C428.99 80.59, 428.1 129.56, 429.22 260.38 M429.22 32 C431.13 111.59, 431.08 192, 429.22 260.38 M429.22 260.38 C429.52 281.29, 420.18 291.95, 397.22 292.38 M429.22 260.38 C430.61 282.76, 419.71 293.14, 397.22 292.38 M397.22 292.38 C293.11 292.82, 187.58 293.11, 32 292.38 M397.22 292.38 C292.74 293, 187.54 292.78, 32 292.38 M32 292.38 C9.62 293.88, 0.98 281.07, 0 260.38 M32 292.38 C12.52 293.58, -2.22 283.44, 0 260.38 M0 260.38 C2.67 192.53, 1.45 122.35, 0 32 M0 260.38 C1.35 179.81, 0.82 99.16, 0 32 M0 32 C-0.36 10.03, 10.83 -1.6, 32 0 M0 32 C1.98 8.42, 8.42 2.14, 32 0" stroke="#1e1e1e" stroke-width="1" fill="none"></path></g><g stroke-linecap="round" transform="translate(1265.7879410750465 2532.0842025632455) rotate(0 169.16148482621975 25.00120448382586)"><path d="M12.24 1.91 L327 -1.77 L333.76 2.02 L335.99 7.79 L338.79 39.93 L338.32 46.22 L331.99 47.74 L326.96 48.75 L9.71 51.57 L6.83 47.28 L0.74 44.4 L1.87 13.39 L4.02 2.37 L11.51 0.89" stroke="none" stroke-width="0" fill="#ffec99"></path><path d="M12.5 0 M12.5 0 C79.69 -0.08, 145.48 -0.41, 325.82 0 M12.5 0 C133.49 -1.81, 253.96 -1.72, 325.82 0 M325.82 0 C332.77 -1.45, 336.54 5.03, 338.32 12.5 M325.82 0 C332.18 -1.54, 338.1 2.42, 338.32 12.5 M338.32 12.5 C339.18 18.61, 339.99 27.06, 338.32 37.5 M338.32 12.5 C338.15 18.73, 337.15 23.01, 338.32 37.5 M338.32 37.5 C336.64 45.94, 334.88 51.62, 325.82 50 M338.32 37.5 C336.36 46.14, 334.48 49.36, 325.82 50 M325.82 50 C241.07 50.4, 155.2 49.94, 12.5 50 M325.82 50 C233.26 51.78, 141.07 51.78, 12.5 50 M12.5 50 C5.38 50.92, 1.01 46.5, 0 37.5 M12.5 50 C3.88 48.26, 0.22 47.43, 0 37.5 M0 37.5 C-0.32 29.45, 0.66 22.53, 0 12.5 M0 37.5 C-0.47 31.55, 0.54 23.78, 0 12.5 M0 12.5 C1.61 5.21, 2.23 1.5, 12.5 0 M0 12.5 C0.09 2.44, 5.52 1.64, 12.5 0" stroke="#1e1e1e" stroke-width="1" fill="none"></path></g><g transform="translate(1379.6808712137663 2540.985407047071) rotate(0 55.2685546875 16.09999999999991)"><text x="55.2685546875" y="0" font-family="Helvetica, Segoe UI Emoji" font-size="28px" fill="#1e1e1e" text-anchor="middle" style="white-space: pre;" direction="ltr" dominant-baseline="text-before-edge">Pedido 1</text></g><g transform="translate(1299.1160925679324 2461.2520552362976) rotate(0 119.0888671875 32.19999999999982)"><text x="0" y="0" font-family="Helvetica, Segoe UI Emoji" font-size="28px" fill="#1e1e1e" text-anchor="start" style="white-space: pre;" direction="ltr" dominant-baseline="text-before-edge">Pedidos aceptados</text><text x="0" y="32.199999999999996" font-family="Helvetica, Segoe UI Emoji" font-size="28px" fill="#1e1e1e" text-anchor="start" style="white-space: pre;" direction="ltr" dominant-baseline="text-before-edge"> por proveedor</text></g><g stroke-linecap="round" transform="translate(1266.6212744083805 2601.2508507524717) rotate(0 169.16148482621975 25.00120448382586)"><path d="M10.95 0.76 L329.41 -0.3 L335.2 2.86 L336.09 6.53 L339.27 39.18 L336.71 46.88 L335.38 47.28 L325.78 51.43 L11.44 50.7 L5.78 47.49 L-0.21 43.86 L-1.77 14.1 L2.96 4.35 L12.12 0.5" stroke="none" stroke-width="0" fill="#ffec99"></path><path d="M12.5 0 M12.5 0 C94.61 -1.04, 174.37 -1.9, 325.82 0 M12.5 0 C106.79 1.92, 201.74 1.14, 325.82 0 M325.82 0 C333.96 -1.52, 337.88 2.62, 338.32 12.5 M325.82 0 C335.68 1.21, 337.36 6.31, 338.32 12.5 M338.32 12.5 C336.57 20.95, 339.78 27.27, 338.32 37.5 M338.32 12.5 C338.47 20.1, 337.26 26.22, 338.32 37.5 M338.32 37.5 C338.6 45.27, 333.61 48.4, 325.82 50 M338.32 37.5 C337.59 46.96, 335.96 50.44, 325.82 50 M325.82 50 C218.65 51.09, 108.73 52.04, 12.5 50 M325.82 50 C238.89 51.26, 151.14 50.48, 12.5 50 M12.5 50 C4.36 51.39, 0.37 46.31, 0 37.5 M12.5 50 C5.12 49.7, -0.11 46.67, 0 37.5 M0 37.5 C-1.26 27.77, 1.58 21.11, 0 12.5 M0 37.5 C-1.17 31.56, -0.16 23.36, 0 12.5 M0 12.5 C1.17 5.59, 6.05 0, 12.5 0 M0 12.5 C1.17 5.38, 2.92 1.48, 12.5 0" stroke="#1e1e1e" stroke-width="1" fill="none"></path></g><g transform="translate(1380.5142045471002 2610.152055236297) rotate(0 55.2685546875 16.09999999999991)"><text x="55.2685546875" y="0" font-family="Helvetica, Segoe UI Emoji" font-size="28px" fill="#1e1e1e" text-anchor="middle" style="white-space: pre;" direction="ltr" dominant-baseline="text-before-edge">Pedido 2</text></g><g stroke-linecap="round" transform="translate(1266.6212744083805 2664.5841840858056) rotate(0 169.16148482621975 25.00120448382586)"><path d="M14.26 1.1 L327.3 -0.31 L334.58 0.51 L337.68 8.79 L340.07 39.47 L336.52 46.55 L335.31 49.14 L326.72 49.25 L8.58 50.7 L3.12 49.84 L0.62 44.2 L-0.38 13 L2.3 4.84 L13.58 1.56" stroke="none" stroke-width="0" fill="#ffec99"></path><path d="M12.5 0 M12.5 0 C110.23 0.11, 206.84 -0.18, 325.82 0 M12.5 0 C119.97 0.95, 227.41 0.94, 325.82 0 M325.82 0 C335.48 1.05, 337.49 6.03, 338.32 12.5 M325.82 0 C334.92 -1.94, 336.24 2.39, 338.32 12.5 M338.32 12.5 C337.97 18.46, 338.64 28.51, 338.32 37.5 M338.32 12.5 C338.25 21.74, 337.84 30.73, 338.32 37.5 M338.32 37.5 C337.68 46.81, 335.72 50.38, 325.82 50 M338.32 37.5 C339.38 45.74, 335.06 51.99, 325.82 50 M325.82 50 C226.83 52.68, 129.09 52.54, 12.5 50 M325.82 50 C221.51 48.8, 117.19 48.48, 12.5 50 M12.5 50 C5 49.74, -0.09 46.56, 0 37.5 M12.5 50 C5.26 49.26, -0.48 44.3, 0 37.5 M0 37.5 C-0.83 32.92, 0.86 23.18, 0 12.5 M0 37.5 C0.58 28.83, 0.93 18.74, 0 12.5 M0 12.5 C1.02 5.22, 3.08 1.28, 12.5 0 M0 12.5 C0.79 4.13, 3.55 -0.29, 12.5 0" stroke="#1e1e1e" stroke-width="1" fill="none"></path></g><g transform="translate(1380.5142045471002 2673.485388569631) rotate(0 55.2685546875 16.09999999999991)"><text x="55.2685546875" y="0" font-family="Helvetica, Segoe UI Emoji" font-size="28px" fill="#1e1e1e" text-anchor="middle" style="white-space: pre;" direction="ltr" dominant-baseline="text-before-edge">Pedido 3</text></g><g stroke-linecap="round"><g transform="translate(1604.6716438187086 2554.0297969863777) rotate(0 125.55298870481374 -0.7589876364154406)"><path d="M0.49 0.81 C42.55 0.69, 210.02 -0.21, 251.82 -0.71 M-0.72 0.19 C41.25 -0.26, 209.11 -2.11, 250.96 -2.33" stroke="#1e1e1e" stroke-width="1" fill="none"></path></g><g transform="translate(1604.6716438187086 2554.0297969863777) rotate(0 125.55298870481374 -0.7589876364154406)"><path d="M224.21 8.44 C231.56 4.86, 236.26 2.54, 250.72 -3.58 M222.6 8.86 C230.42 6.07, 238.47 2.41, 250.25 -3.19" stroke="#1e1e1e" stroke-width="1" fill="none"></path></g><g transform="translate(1604.6716438187086 2554.0297969863777) rotate(0 125.55298870481374 -0.7589876364154406)"><path d="M224.03 -12.08 C231.44 -10.46, 236.18 -7.59, 250.72 -3.58 M222.43 -11.66 C230.16 -8.79, 238.25 -6.81, 250.25 -3.19" stroke="#1e1e1e" stroke-width="1" fill="none"></path></g></g><mask></mask><g transform="translate(1668.0049771520407 2462.3631303197126) rotate(0 80.1513671875 32.19999999999982)"><text x="0" y="0" font-family="Helvetica, Segoe UI Emoji" font-size="28px" fill="#1e1e1e" text-anchor="start" style="white-space: pre;" direction="ltr" dominant-baseline="text-before-edge">Click pedido </text><text x="0" y="32.199999999999996" font-family="Helvetica, Segoe UI Emoji" font-size="28px" fill="#1e1e1e" text-anchor="start" style="white-space: pre;" direction="ltr" dominant-baseline="text-before-edge">aceptado</text></g><g stroke-linecap="round" transform="translate(1865.0637313353436 2432.8416351602746) rotate(0 214.6079124833641 146.188161826105)"><path d="M31.54 0.18 L399.11 -1.88 L403.91 -0.66 L415.94 5.72 L425.36 12.39 L428.92 18.51 L430.24 31.03 L427.52 261.27 L427.81 268.23 L424.28 279.52 L415.94 288.2 L412.91 288.79 L396.65 292.15 L30.51 291.61 L23.85 291.8 L13.96 288.37 L4.72 278.24 L1.6 275.35 L0.93 261.42 L0.13 24.32 L3.98 16.32 L9.87 8.57 L19.52 2.89 L32.26 -0.89" stroke="none" stroke-width="0" fill="#ffec99"></path><path d="M32 0 M32 0 C128.32 2.27, 224.15 2.73, 397.22 0 M32 0 C124.37 -1.89, 216.61 -1.45, 397.22 0 M397.22 0 C417.64 -1.63, 429.89 9.09, 429.22 32 M397.22 0 C418.85 1.75, 427.85 9.23, 429.22 32 M429.22 32 C432.51 94.88, 432.25 153.85, 429.22 260.38 M429.22 32 C427.89 117.54, 428.27 203.32, 429.22 260.38 M429.22 260.38 C428.97 280.69, 420.49 293.89, 397.22 292.38 M429.22 260.38 C429.12 279.57, 417.41 292.93, 397.22 292.38 M397.22 292.38 C308.85 290.38, 219.7 289.75, 32 292.38 M397.22 292.38 C274.29 293.47, 150.83 293.34, 32 292.38 M32 292.38 C11 292.89, 0.21 283.58, 0 260.38 M32 292.38 C10.03 292.65, -1.73 282.83, 0 260.38 M0 260.38 C-2.84 186.1, -2.45 114.86, 0 32 M0 260.38 C1.55 194.23, 1.06 127.77, 0 32 M0 32 C0.91 10.85, 9.15 -0.31, 32 0 M0 32 C-1.1 11.46, 11.68 -0.53, 32 0" stroke="#1e1e1e" stroke-width="1" fill="none"></path></g><g transform="translate(1945.5827766312086 2456.2631303197113) rotate(0 144.7646484375 32.19999999999982)"><text x="0" y="0" font-family="Helvetica, Segoe UI Emoji" font-size="28px" fill="#1e1e1e" text-anchor="start" style="white-space: pre;" direction="ltr" dominant-baseline="text-before-edge">Pedido aceptados listo </text><text x="0" y="32.199999999999996" font-family="Helvetica, Segoe UI Emoji" font-size="28px" fill="#1e1e1e" text-anchor="start" style="white-space: pre;" direction="ltr" dominant-baseline="text-before-edge">para repartir</text></g><g stroke-linecap="round" transform="translate(1943.8383104853747 2574.8631303197126) rotate(0 112.5 27.5)"><path d="M15.66 1.51 L212.87 -1.1 L221.44 1.47 L223.46 7.11 L223.7 45.12 L222.98 50.17 L218.61 55.79 L211.48 53.5 L12.41 53.77 L5.02 51.87 L0.48 47.5 L-0.05 14.67 L-1.11 6.32 L5.22 3.27 L8.67 1.72 L11.93 0.19" stroke="none" stroke-width="0" fill="#a5d8ff"></path><path d="M13.75 0 M13.75 0 C78.64 2.9, 143.6 2.07, 211.25 0 M13.75 0 C71.01 0.54, 129.37 -0.56, 211.25 0 M211.25 0 C219.42 1.49, 224.52 3.97, 225 13.75 M211.25 0 C221.22 -0.72, 223.88 3.85, 225 13.75 M225 13.75 C225.56 22.13, 226.28 25.93, 225 41.25 M225 13.75 C225.26 19.56, 224.92 26.59, 225 41.25 M225 41.25 C226.93 51.45, 221.06 54.51, 211.25 55 M225 41.25 C223.71 51.77, 220.56 52.78, 211.25 55 M211.25 55 C155.93 55.64, 98.72 56.05, 13.75 55 M211.25 55 C149.45 57.4, 89.3 56.03, 13.75 55 M13.75 55 C4.65 54.57, 0.61 50.9, 0 41.25 M13.75 55 C3.28 53.54, -1.63 49.52, 0 41.25 M0 41.25 C-1.34 34.67, 1.48 26.02, 0 13.75 M0 41.25 C-0.36 32.55, -0.17 23.98, 0 13.75 M0 13.75 C-0.93 5.04, 3.1 0.34, 13.75 0 M0 13.75 C-1.2 3.43, 6.48 1.08, 13.75 0" stroke="#1e1e1e" stroke-width="1" fill="none"></path></g><g transform="translate(1994.8832323603747 2586.263130319712) rotate(0 61.455078125 16.09999999999991)"><text x="61.455078125" y="0" font-family="Helvetica, Segoe UI Emoji" font-size="28px" fill="#1e1e1e" text-anchor="middle" style="white-space: pre;" direction="ltr" dominant-baseline="text-before-edge">Confirmar</text></g><g stroke-linecap="round"><g transform="translate(2059.116081839097 2433.4742540802517) rotate(0 -2.284473564601285 -67.09211029460039)"><path d="M0.29 0.91 C-0.49 -21.64, -3.26 -112.61, -4.28 -135.09 M-1.02 0.34 C-1.92 -22.11, -4.46 -111.89, -4.86 -134.04" stroke="#1e1e1e" stroke-width="1" fill="none"></path></g><g transform="translate(2059.116081839097 2433.4742540802517) rotate(0 -2.284473564601285 -67.09211029460039)"><path d="M7.6 -104.92 C0.87 -116.75, -0.89 -125.77, -4.42 -134.98 M6.6 -105.79 C2.61 -114.6, 0.29 -122.02, -5.82 -134.22" stroke="#1e1e1e" stroke-width="1" fill="none"></path></g><g transform="translate(2059.116081839097 2433.4742540802517) rotate(0 -2.284473564601285 -67.09211029460039)"><path d="M-12.92 -104.42 C-12.87 -116.46, -7.86 -125.66, -4.42 -134.98 M-13.92 -105.29 C-12.01 -114.45, -8.41 -122.01, -5.82 -134.22" stroke="#1e1e1e" stroke-width="1" fill="none"></path></g></g><mask></mask><g stroke-linecap="round" transform="translate(3356.591565472627 1989.7861344741057) rotate(0 266.2745791500306 146.18816182610476)"><path d="M33.92 -1.4 L501.44 0.68 L507.19 0.62 L519.43 3.88 L526.22 14.19 L529.23 16.32 L531.95 31.79 L531.51 259.53 L532.88 267.12 L526.11 279.79 L518.13 289.15 L513.96 289.36 L500.97 291.84 L32.08 291.53 L23.22 291.65 L11.26 287.44 L5.99 280.42 L1.78 274.13 L-1.13 260.87 L1.58 24.11 L0.6 16.7 L6.22 7.41 L16.07 0.63 L32.4 -0.19" stroke="none" stroke-width="0" fill="#ffec99"></path><path d="M32 0 M32 0 C180.2 2.51, 326.47 2.01, 500.55 0 M32 0 C146.48 -0.94, 260.71 -0.65, 500.55 0 M500.55 0 C522.13 1.5, 534.14 10.29, 532.55 32 M500.55 0 C520.03 -0.27, 531.97 10.23, 532.55 32 M532.55 32 C531.07 86.03, 531.59 141.71, 532.55 260.38 M532.55 32 C532.02 94.92, 531.27 156.95, 532.55 260.38 M532.55 260.38 C532.64 280.5, 521.61 292.21, 500.55 292.38 M532.55 260.38 C533.2 283.43, 522.85 293.49, 500.55 292.38 M500.55 292.38 C357.22 293, 214.48 292.32, 32 292.38 M500.55 292.38 C319.48 290.97, 138.15 290.54, 32 292.38 M32 292.38 C12.36 291.54, -0.63 281.05, 0 260.38 M32 292.38 C11.57 291.88, 0.34 283.77, 0 260.38 M0 260.38 C-0.61 170.34, -1.95 83.09, 0 32 M0 260.38 C-0.91 171.4, -0.61 81.32, 0 32 M0 32 C-0.63 11.83, 9.42 -1.37, 32 0 M0 32 C-0.63 8.54, 9.17 -0.34, 32 0" stroke="#1e1e1e" stroke-width="1" fill="none"></path></g><g stroke-linecap="round"><g transform="translate(3180.366144622657 2131.01683301919) rotate(0 86.29411411394358 0.09945826988769113)"><path d="M0.17 0.08 C28.73 0.29, 142.65 1.2, 171.56 1.14 M-1.19 -0.93 C27.71 -1.02, 144.67 -0.7, 173.78 -0.41" stroke="#1e1e1e" stroke-width="1" fill="none"></path></g><g transform="translate(3180.366144622657 2131.01683301919) rotate(0 86.29411411394358 0.09945826988769113)"><path d="M145.66 8.13 C156.41 8.3, 163.02 3.96, 172.65 0.7 M146.45 10.69 C155.52 6.79, 166.13 2.29, 172.98 -0.53" stroke="#1e1e1e" stroke-width="1" fill="none"></path></g><g transform="translate(3180.366144622657 2131.01683301919) rotate(0 86.29411411394358 0.09945826988769113)"><path d="M145.78 -12.39 C156.47 -5.65, 163.05 -3.43, 172.65 0.7 M146.57 -9.83 C155.75 -6.51, 166.32 -3.79, 172.98 -0.53" stroke="#1e1e1e" stroke-width="1" fill="none"></path></g></g><mask></mask><g stroke-linecap="round" transform="translate(3461.2741193738366 2052.848096435744) rotate(0 169.16148482621975 25.00120448382586)"><path d="M13.19 -0.83 L329.41 0.3 L334.98 1.07 L337.18 7.55 L340.11 40.53 L338.21 44.85 L334.4 47.47 L324.63 51.24 L11.4 49.82 L4.55 46.42 L1.07 42.38 L1.13 13.8 L3.55 3.11 L12.95 -1.01" stroke="none" stroke-width="0" fill="#b2f2bb"></path><path d="M12.5 0 M12.5 0 C87.31 0.79, 159.65 0.56, 325.82 0 M12.5 0 C102.02 1.22, 191.8 0.72, 325.82 0 M325.82 0 C333.21 -0.1, 338.05 4.24, 338.32 12.5 M325.82 0 C334.13 1.17, 339.26 4.88, 338.32 12.5 M338.32 12.5 C340.27 19.77, 338.39 23.71, 338.32 37.5 M338.32 12.5 C339.01 18.07, 337.45 26.03, 338.32 37.5 M338.32 37.5 C340.25 46.96, 335.3 48.72, 325.82 50 M338.32 37.5 C340.21 46.82, 334.66 48.31, 325.82 50 M325.82 50 C210.96 49.38, 95.95 48.28, 12.5 50 M325.82 50 C211.79 51.37, 96.39 51.14, 12.5 50 M12.5 50 C5.41 49.83, 0.92 44.77, 0 37.5 M12.5 50 C6.37 50.45, -1.71 44.73, 0 37.5 M0 37.5 C0.59 28.67, 0.3 22.8, 0 12.5 M0 37.5 C0.18 28.56, -0.26 21.07, 0 12.5 M0 12.5 C0.77 2.95, 5.43 1.15, 12.5 0 M0 12.5 C-0.93 4.11, 3.43 0.77, 12.5 0" stroke="#1e1e1e" stroke-width="1" fill="none"></path></g><g transform="translate(3495.0088463875563 2061.7493009195705) rotate(0 135.4267578125 16.09999999999991)"><text x="135.4267578125" y="0" font-family="Helvetica, Segoe UI Emoji" font-size="28px" fill="#1e1e1e" text-anchor="middle" style="white-space: pre;" direction="ltr" dominant-baseline="text-before-edge">Pedido por entregar 1</text></g><g stroke-linecap="round" transform="translate(3456.621329343996 2120.973091816384) rotate(0 169.16148482621975 25.00120448382586)"><path d="M12.94 -0.14 L329.76 1.87 L334.42 3.39 L338.99 6.69 L338.38 38.71 L335.86 44.52 L333.16 49.24 L327.03 51.92 L10.79 48.41 L3.1 50.09 L-0.26 44.51 L1.71 11.94 L2.66 5 L11.98 0.57" stroke="none" stroke-width="0" fill="#b2f2bb"></path><path d="M12.5 0 M12.5 0 C136.77 1.37, 259.36 -0.49, 325.82 0 M12.5 0 C124.6 -0.24, 235.1 -0.58, 325.82 0 M325.82 0 C335.99 -0.97, 340.02 4.87, 338.32 12.5 M325.82 0 C334.94 -1.19, 336.73 6.33, 338.32 12.5 M338.32 12.5 C336.73 19.59, 337.27 28.7, 338.32 37.5 M338.32 12.5 C338.7 19.06, 339.28 26.54, 338.32 37.5 M338.32 37.5 C336.81 44.99, 334.65 48.46, 325.82 50 M338.32 37.5 C338.62 46.01, 333.72 49.37, 325.82 50 M325.82 50 C214.36 50, 99.79 50.21, 12.5 50 M325.82 50 C247.17 49.75, 167.61 49.97, 12.5 50 M12.5 50 C4.87 48.26, -0.92 45.77, 0 37.5 M12.5 50 C2.08 52.17, -1.01 47.16, 0 37.5 M0 37.5 C-1.33 29.78, 0.48 25.3, 0 12.5 M0 37.5 C-0.15 30.56, 0.74 23, 0 12.5 M0 12.5 C1.68 4.8, 3.26 1.14, 12.5 0 M0 12.5 C-1.96 1.94, 5.2 1.25, 12.5 0" stroke="#1e1e1e" stroke-width="1" fill="none"></path></g><g transform="translate(3490.3560563577157 2129.8742963002105) rotate(0 135.4267578125 16.09999999999991)"><text x="135.4267578125" y="0" font-family="Helvetica, Segoe UI Emoji" font-size="28px" fill="#1e1e1e" text-anchor="middle" style="white-space: pre;" direction="ltr" dominant-baseline="text-before-edge">Pedido por entregar 1</text></g><g stroke-linecap="round" transform="translate(3456.621329343994 2183.473091816384) rotate(0 169.16148482621975 25.00120448382586)"><path d="M13.81 -0.25 L327.58 -1.24 L332.47 1.82 L337.89 6.65 L337.94 41.03 L338.39 46.8 L332.3 48.27 L326.09 48.59 L10.55 51.15 L3.18 48.79 L1.4 42.94 L0.18 10.65 L4.97 2.8 L12.3 -1.63" stroke="none" stroke-width="0" fill="#b2f2bb"></path><path d="M12.5 0 M12.5 0 C80.98 0.31, 148.2 -0.82, 325.82 0 M12.5 0 C111.97 -0.03, 211.59 -0.03, 325.82 0 M325.82 0 C332.21 1.68, 338.24 4.94, 338.32 12.5 M325.82 0 C333.48 0.58, 337.29 3.28, 338.32 12.5 M338.32 12.5 C337.97 20.7, 338.78 28.52, 338.32 37.5 M338.32 12.5 C338.42 20.26, 338.91 29.95, 338.32 37.5 M338.32 37.5 C336.63 44.62, 332.96 49.89, 325.82 50 M338.32 37.5 C336.32 44.43, 332.25 49.52, 325.82 50 M325.82 50 C240.9 50.21, 156.66 52.18, 12.5 50 M325.82 50 C215.68 49.12, 105.48 49.34, 12.5 50 M12.5 50 C5.37 50.75, -0.4 45.76, 0 37.5 M12.5 50 C2.22 49.58, 1.03 44.67, 0 37.5 M0 37.5 C-0.9 26.46, -1.93 18.63, 0 12.5 M0 37.5 C-1.06 30.19, 0.52 24.62, 0 12.5 M0 12.5 C-1.45 5.89, 5.95 1.23, 12.5 0 M0 12.5 C1.14 3.41, 4.56 -0.66, 12.5 0" stroke="#1e1e1e" stroke-width="1" fill="none"></path></g><g transform="translate(3490.356056357714 2192.3742963002105) rotate(0 135.4267578125 16.09999999999991)"><text x="135.4267578125" y="0" font-family="Helvetica, Segoe UI Emoji" font-size="28px" fill="#1e1e1e" text-anchor="middle" style="white-space: pre;" direction="ltr" dominant-baseline="text-before-edge">Pedido por entregar 1</text></g><g stroke-linecap="round"><g transform="translate(3797.866135383937 2073.47429630021) rotate(0 178.438874275447 7.593537177275039)"><path d="M-0.08 -0.05 C59.63 2.44, 299.01 12.48, 358.46 15.15 M-1.58 -1.12 C58.03 1.49, 297.91 13.23, 358.01 16.3" stroke="#1e1e1e" stroke-width="1" fill="none"></path></g><g transform="translate(3797.866135383937 2073.47429630021) rotate(0 178.438874275447 7.593537177275039)"><path d="M329.27 26.75 C337.26 20.88, 347.78 19.69, 356.1 16.05 M329.46 26.07 C335.13 24.26, 341.74 22.08, 358.51 15.63" stroke="#1e1e1e" stroke-width="1" fill="none"></path></g><g transform="translate(3797.866135383937 2073.47429630021) rotate(0 178.438874275447 7.593537177275039)"><path d="M330.29 6.25 C338 6.91, 348.18 12.26, 356.1 16.05 M330.48 5.57 C336.1 8.02, 342.5 10.1, 358.51 15.63" stroke="#1e1e1e" stroke-width="1" fill="none"></path></g></g><mask></mask><g transform="translate(3862.866135383937 1888.4742963002102) rotate(0 156.419921875 16.09999999999991)"><text x="0" y="0" font-family="Helvetica, Segoe UI Emoji" font-size="28px" fill="#1e1e1e" text-anchor="start" style="white-space: pre;" direction="ltr" dominant-baseline="text-before-edge">Click pedido por entregar</text></g><g stroke-linecap="round" transform="translate(4177.841518086934 1967.2861344741052) rotate(0 266.2745791500306 206.18816182610522)"><path d="M33.87 -1.2 L501.47 -1.83 L514.15 1.94 L525.42 6.42 L530.55 16.98 L532.3 30.89 L534.23 380.36 L531.89 395.84 L524.13 405.02 L516.33 412.03 L501.61 412.65 L33.6 412.96 L19.82 410.19 L9.7 405.39 L3.96 396.23 L-0.65 379.7 L1.92 30.56 L2.22 19.52 L6.56 7.77 L16.31 1.23 L33.09 0.92" stroke="none" stroke-width="0" fill="#ffec99"></path><path d="M32 0 M32 0 C172.98 1.05, 314.73 0.3, 500.55 0 M32 0 C195.12 1.7, 357.61 1.68, 500.55 0 M500.55 0 C521.29 -1.32, 532.94 12.02, 532.55 32 M500.55 0 C520.36 0.07, 534.16 9.99, 532.55 32 M532.55 32 C532.67 118.85, 533.92 204.31, 532.55 380.38 M532.55 32 C530.88 127.04, 530.23 222.25, 532.55 380.38 M532.55 380.38 C533.24 400.1, 522.83 412.97, 500.55 412.38 M532.55 380.38 C533.99 400.75, 521.31 413.64, 500.55 412.38 M500.55 412.38 C346.46 412.86, 190.43 412.01, 32 412.38 M500.55 412.38 C389.35 413.28, 278.64 413.66, 32 412.38 M32 412.38 C12.05 413.45, 1.51 399.78, 0 380.38 M32 412.38 C11.84 411.88, 2.07 403.66, 0 380.38 M0 380.38 C-1.29 266.5, -2.27 153.41, 0 32 M0 380.38 C0.18 281.28, 0.61 181.61, 0 32 M0 32 C-1.53 11.53, 8.93 0.86, 32 0 M0 32 C-1.05 10.13, 10.79 1.01, 32 0" stroke="#1e1e1e" stroke-width="1" fill="none"></path></g><g transform="translate(4281.338343963318 1990.9742837832366) rotate(0 203.9091796875 16.09999999999991)"><text x="0" y="0" font-family="Helvetica, Segoe UI Emoji" font-size="28px" fill="#1e1e1e" text-anchor="start" style="white-space: pre;" direction="ltr" dominant-baseline="text-before-edge">Pedido entregado correctamente</text></g><g transform="translate(4234.67167729665 2065.9742837832364) rotate(0 145.537109375 32.200000000000045)"><text x="0" y="0" font-family="Helvetica, Segoe UI Emoji" font-size="28px" fill="#1e1e1e" text-anchor="start" style="white-space: pre;" direction="ltr" dominant-baseline="text-before-edge">Informacin del pedido </text><text x="0" y="32.199999999999996" font-family="Helvetica, Segoe UI Emoji" font-size="28px" fill="#1e1e1e" text-anchor="start" style="white-space: pre;" direction="ltr" dominant-baseline="text-before-edge">y comprador</text></g><g stroke-linecap="round" transform="translate(4330.449456001608 2185.8631731357173) rotate(0 87 29)"><path d="M15.37 -1.58 L165.85 -0.11 L170.13 2.51 L175.45 11.08 L174.43 51.31 L167.92 56.6 L161.28 59.66 L9.22 57.36 L5.22 54.96 L2.05 46.72 L1.93 12.12 L4 7.51 L5.02 1.37 L16.42 -1.44" stroke="none" stroke-width="0" fill="#a5d8ff"></path><path d="M14.5 0 M14.5 0 C59.34 -0.65, 103.87 2.13, 159.5 0 M14.5 0 C64.24 -1.7, 114.98 -1.32, 159.5 0 M159.5 0 C167.68 0.95, 175.86 2.98, 174 14.5 M159.5 0 C171.14 -1.35, 174.73 3.37, 174 14.5 M174 14.5 C175.17 21.02, 173.87 31.6, 174 43.5 M174 14.5 C174.02 22.3, 173.93 31.11, 174 43.5 M174 43.5 C172.19 52.62, 167.59 59.45, 159.5 58 M174 43.5 C174.44 53.53, 167.29 59.32, 159.5 58 M159.5 58 C111.59 59.94, 61.65 58.19, 14.5 58 M159.5 58 C107.88 60.1, 57.33 58.77, 14.5 58 M14.5 58 C4.61 56.73, -0.35 54.32, 0 43.5 M14.5 58 C2.58 56.39, -2 53.52, 0 43.5 M0 43.5 C-2.09 33.81, -0.59 23.88, 0 14.5 M0 43.5 C-0.12 32.38, -0.13 20.46, 0 14.5 M0 14.5 C0.97 4.54, 4.26 -1.91, 14.5 0 M0 14.5 C-1.69 5.65, 4.66 -0.39, 14.5 0" stroke="#1e1e1e" stroke-width="1" fill="none"></path></g><g transform="translate(4348.528557564108 2203.3631731357173) rotate(0 68.9208984375 11.5)"><text x="68.9208984375" y="0" font-family="Helvetica, Segoe UI Emoji" font-size="20px" fill="#1e1e1e" text-anchor="middle" style="white-space: pre;" direction="ltr" dominant-baseline="text-before-edge">Confirmar pago</text></g><g stroke-linecap="round" transform="translate(4323.782804037426 2289.057639865675) rotate(0 87 28.999999999999773)"><path d="M15.54 -0.25 L166.41 2.32 L169.28 3.01 L173.33 10.95 L171.95 48.59 L167.09 57.02 L159.03 58.04 L8.75 57.55 L4.8 56.23 L1.37 48.7 L1.91 10.25 L0.14 6.92 L6.21 1.3 L13.28 -0.67" stroke="none" stroke-width="0" fill="#a5d8ff"></path><path d="M14.5 0 M14.5 0 C51 -0.58, 84.79 0.62, 159.5 0 M14.5 0 C53.75 0.46, 91.58 0.24, 159.5 0 M159.5 0 C171.15 1.59, 172.75 6.05, 174 14.5 M159.5 0 C169.09 2.1, 174.47 6.39, 174 14.5 M174 14.5 C172.13 22.5, 172.39 32.32, 174 43.5 M174 14.5 C173.83 20.11, 174.31 26.5, 174 43.5 M174 43.5 C174.26 55.16, 167.49 58.51, 159.5 58 M174 43.5 C175.42 53.95, 168.86 59.66, 159.5 58 M159.5 58 C106.41 58.97, 50.84 59.46, 14.5 58 M159.5 58 C121.83 56.75, 82.76 57.43, 14.5 58 M14.5 58 C5.7 56.92, -1.14 55.06, 0 43.5 M14.5 58 C3.02 58.61, 1.04 53.2, 0 43.5 M0 43.5 C1.32 34.12, 1.98 25.31, 0 14.5 M0 43.5 C-0.83 34.44, -0.89 26.06, 0 14.5 M0 14.5 C-1.6 6.17, 6.23 1.78, 14.5 0 M0 14.5 C1.39 3.67, 5.47 1.9, 14.5 0" stroke="#1e1e1e" stroke-width="1" fill="none"></path></g><g transform="translate(4330.191983724926 2306.557639865675) rotate(0 80.5908203125 11.5)"><text x="80.5908203125" y="0" font-family="Helvetica, Segoe UI Emoji" font-size="20px" fill="#1e1e1e" text-anchor="middle" style="white-space: pre;" direction="ltr" dominant-baseline="text-before-edge">Confirmar entrega</text></g></svg>