<?xml version="1.0" encoding="UTF-8" standalone="no"?>
<!-- Created with Inkscape (http://www.inkscape.org/) -->

<svg
   width="87.3125mm"
   height="26.458353mm"
   viewBox="0 0 87.3125 26.458353"
   version="1.1"
   id="svg5"
   xml:space="preserve"
   inkscape:version="1.2.2 (732a01da63, 2022-12-09)"
   sodipodi:docname="logoph.svg"
   inkscape:export-filename="kg.png"
   inkscape:export-xdpi="300"
   inkscape:export-ydpi="300"
   xmlns:inkscape="http://www.inkscape.org/namespaces/inkscape"
   xmlns:sodipodi="http://sodipodi.sourceforge.net/DTD/sodipodi-0.dtd"
   xmlns="http://www.w3.org/2000/svg"
   xmlns:svg="http://www.w3.org/2000/svg"><sodipodi:namedview
     id="namedview7"
     pagecolor="#ffffff"
     bordercolor="#000000"
     borderopacity="0.25"
     inkscape:showpageshadow="2"
     inkscape:pageopacity="0.0"
     inkscape:pagecheckerboard="0"
     inkscape:deskcolor="#d1d1d1"
     inkscape:document-units="mm"
     showgrid="true"
     inkscape:zoom="0.79549513"
     inkscape:cx="54.682924"
     inkscape:cy="21.370338"
     inkscape:window-width="1366"
     inkscape:window-height="745"
     inkscape:window-x="-8"
     inkscape:window-y="-8"
     inkscape:window-maximized="1"
     inkscape:current-layer="layer1"
     showguides="true"><inkscape:grid
       type="xygrid"
       id="grid182"
       originx="-15.875"
       originy="-153.45836" /></sodipodi:namedview><defs
     id="defs2"><rect
       x="130"
       y="240"
       width="200"
       height="120"
       id="rect458" /><rect
       x="130"
       y="240"
       width="310"
       height="131.65367"
       id="rect622" /><rect
       x="130"
       y="240"
       width="410"
       height="141.65367"
       id="rect640" /><rect
       x="130"
       y="240"
       width="410"
       height="141.65367"
       id="rect691" /><rect
       x="130"
       y="240"
       width="410"
       height="141.65367"
       id="rect1797" /><rect
       x="130"
       y="240"
       width="310"
       height="131.65367"
       id="rect333" /><rect
       x="130"
       y="240"
       width="310"
       height="131.65367"
       id="rect441" /><rect
       x="130"
       y="240"
       width="310"
       height="131.65367"
       id="rect447" /><rect
       x="130"
       y="240"
       width="310"
       height="131.65367"
       id="rect453" /><rect
       x="130"
       y="240"
       width="310"
       height="131.65367"
       id="rect459" /><rect
       x="130"
       y="240"
       width="377.55557"
       height="117.43145"
       id="rect465" /><rect
       x="130"
       y="240"
       width="377.55557"
       height="117.43145"
       id="rect471" /><rect
       x="130"
       y="240"
       width="377.55557"
       height="117.43145"
       id="rect477" /></defs><g
     inkscape:label="Layer 1"
     inkscape:groupmode="layer"
     id="layer1"
     transform="translate(-15.875,-153.45833)"><path
       id="path1581"
       style="font-weight:500;font-size:66.6667px;font-family:Poppins;-inkscape-font-specification:'Poppins Medium';white-space:pre;fill:#ffffff;fill-opacity:1;stroke-width:2;paint-order:fill markers stroke"
       d="m 40.34674,157.01506 c -1.567519,0 -2.859257,1.29173 -2.859257,2.85925 h -0.01085 v 1.9792 c -0.86848,-1.03723 -2.093846,-1.6277 -3.378089,-1.6278 -2.532733,-1.1e-4 -4.586038,2.25078 -4.586283,5.0276 -1.2e-5,2.77702 2.053369,5.02821 4.586283,5.02811 1.284244,-1.1e-4 2.50961,-0.59058 3.378089,-1.62781 v 5.49063 h -2.719214 -4.730461 c -2.6e-5,1.31664 0.901608,2.53327 2.365231,3.19154 1.463459,0.65823 3.266485,0.65823 4.729944,0 1.463622,-0.65827 2.365256,-1.8749 2.36523,-3.19154 v -14.26993 c 0,-0.48665 0.372739,-0.85938 0.859379,-0.85938 0.486649,0 0.859379,0.37273 0.859379,0.85938 h 1.999878 c 0,-1.56752 -1.291729,-2.85925 -2.859257,-2.85925 z m -5.799646,4.93509 c 1.451714,3.6e-4 2.690567,1.16251 2.929537,2.74815 v 1.08262 c -0.238766,1.58585 -1.477672,2.74826 -2.929537,2.74867 -1.640765,9e-5 -2.970902,-1.4728 -2.970878,-3.28972 -2.4e-5,-1.81692 1.330113,-3.28981 2.970878,-3.28972 z"
       sodipodi:nodetypes="scccccsccccsscssccssccccsc" /><path
       d="m 25.528474,165.27182 4.480282,4.85069 h -2.716392 l -3.598333,-4.18041 v -1.28764 l 3.527779,-4.25098 h 2.786946 z"
       id="path660"
       style="font-weight:500;font-size:66.6667px;font-family:Poppins;-inkscape-font-specification:'Poppins Medium';white-space:pre;fill:#ffffff;fill-opacity:1;stroke-width:2;paint-order:fill markers stroke"
       sodipodi:nodetypes="cccccccc" /><g
       id="g408"
       style="fill:#ffffff"><path
         d="m 50.099464,160.40348 v 9.71903 h -2.01084 v -1.14652 c -0.3175,0.39981 -0.73495,0.71731 -1.25235,0.9525 -0.50565,0.22343 -1.04658,0.33514 -1.62278,0.33514 -0.76436,0 -1.452273,-0.15875 -2.063753,-0.47625 -0.599724,-0.3175 -1.075975,-0.78787 -1.428753,-1.41112 -0.341018,-0.62324 -0.511527,-1.37583 -0.511527,-2.25778 v -4.65667 h 1.993197 v 4.35681 c 0,0.87019 0.217546,1.54047 0.652637,2.01084 0.435089,0.45861 1.028939,0.68791 1.781529,0.68791 0.75259,0 1.34643,-0.2293 1.78152,-0.68791 0.44685,-0.47037 0.67028,-1.14065 0.67028,-2.01084 v -5.41514 z"
         id="path664"
         style="font-weight:500;font-size:66.6667px;font-family:Poppins;-inkscape-font-specification:'Poppins Medium';white-space:pre;fill:#ffffff;stroke-width:2;paint-order:fill markers stroke"
         sodipodi:nodetypes="cccccsccsccscscscc" /><path
         d="m 53.239184,159.11584 q -0.54681,0 -0.91722,-0.37041 -0.37042,-0.37042 -0.37042,-0.91723 0,-0.5468 0.37042,-0.91722 0.37041,-0.37042 0.91722,-0.37042 0.52917,0 0.89958,0.37042 0.37042,0.37042 0.37042,0.91722 0,0.54681 -0.37042,0.91723 -0.37041,0.37041 -0.89958,0.37041 z m 0.98778,1.28764 v 9.71903 h -2.01084 v -9.71903 z"
         id="path666"
         style="font-weight:500;font-size:66.6667px;font-family:Poppins;-inkscape-font-specification:'Poppins Medium';white-space:pre;fill:#ffffff;stroke-width:2;paint-order:fill markers stroke" /><path
         d="m 59.871404,170.28126 q -1.14653,0 -2.06375,-0.40569 -0.89958,-0.42333 -1.42875,-1.12889 -0.52917,-0.72319 -0.56444,-1.60514 h 2.08138 q 0.0529,0.61736 0.58209,1.0407 0.5468,0.40569 1.35819,0.40569 0.84667,0 1.30528,-0.3175 0.47625,-0.33514 0.47625,-0.84667 0,-0.5468 -0.52917,-0.81139 -0.51152,-0.26458 -1.64041,-0.58208 -1.09361,-0.29986 -1.78153,-0.58208 -0.68792,-0.28223 -1.19945,-0.86431 -0.49388,-0.58208 -0.49388,-1.53458 0,-0.77612 0.45861,-1.41112 0.45861,-0.65263 1.30527,-1.02305 0.86431,-0.37042 1.97556,-0.37042 1.65806,0 2.66347,0.84667 1.02306,0.82903 1.09362,2.27542 h -2.01084 q -0.0529,-0.65264 -0.52917,-1.0407 -0.47625,-0.38805 -1.28764,-0.38805 -0.79375,0 -1.21708,0.29986 -0.42333,0.29986 -0.42333,0.79375 0,0.38805 0.28222,0.65264 0.28222,0.26458 0.68792,0.42333 0.40569,0.14111 1.19944,0.37042 1.05834,0.28222 1.72861,0.58208 0.68792,0.28222 1.18181,0.84667 0.49389,0.56444 0.51153,1.4993 0,0.82903 -0.45861,1.48167 -0.45861,0.65264 -1.30528,1.02306 -0.82903,0.37041 -1.95792,0.37041 z"
         id="path668"
         style="font-weight:500;font-size:66.6667px;font-family:Poppins;-inkscape-font-specification:'Poppins Medium';white-space:pre;fill:#ffffff;stroke-width:2;paint-order:fill markers stroke" /><path
         d="m 64.563354,165.2189 q 0,-1.46403 0.59973,-2.59292 0.61736,-1.12889 1.65805,-1.74625 1.05834,-0.635 2.32834,-0.635 1.14652,0 1.99319,0.45861 0.86431,0.44098 1.37584,1.11125 v -1.41111 h 2.02847 v 9.71903 h -2.02847 v -1.44639 q -0.51153,0.68792 -1.39348,1.14653 -0.88194,0.45861 -2.01083,0.45861 -1.25236,0 -2.29306,-0.635 -1.04069,-0.65263 -1.65805,-1.79916 -0.59973,-1.16417 -0.59973,-2.6282 z m 7.95515,0.0353 q 0,-1.00542 -0.42334,-1.74625 -0.40569,-0.74084 -1.07597,-1.12889 -0.67028,-0.38806 -1.44639,-0.38806 -0.77611,0 -1.44639,0.38806 -0.67028,0.37041 -1.09361,1.11125 -0.4057,0.72319 -0.4057,1.72861 0,1.00542 0.4057,1.76389 0.42333,0.75847 1.09361,1.16417 0.68792,0.38805 1.44639,0.38805 0.77611,0 1.44639,-0.38805 0.67028,-0.38806 1.07597,-1.12889 0.42334,-0.75847 0.42334,-1.76389 z"
         id="path670"
         style="font-weight:500;font-size:66.6667px;font-family:Poppins;-inkscape-font-specification:'Poppins Medium';white-space:pre;fill:#ffffff;stroke-width:2;paint-order:fill markers stroke" /><path
         d="m 75.993354,165.2189 q 0,-1.46403 0.59972,-2.59292 0.61736,-1.12889 1.65806,-1.74625 1.05833,-0.635 2.34597,-0.635 0.9525,0 1.86972,0.42334 0.93486,0.40569 1.48167,1.09361 v -4.69195 h 2.02847 v 13.05278 h -2.02847 v -1.46402 q -0.49389,0.70555 -1.37584,1.16416 -0.8643,0.45861 -1.99319,0.45861 -1.27,0 -2.32833,-0.635 -1.0407,-0.65263 -1.65806,-1.79916 -0.59972,-1.16417 -0.59972,-2.6282 z m 7.95514,0.0353 q 0,-1.00542 -0.42334,-1.74625 -0.40569,-0.74084 -1.07597,-1.12889 -0.67028,-0.38806 -1.44639,-0.38806 -0.77611,0 -1.44639,0.38806 -0.67027,0.37041 -1.09361,1.11125 -0.40569,0.72319 -0.40569,1.72861 0,1.00542 0.40569,1.76389 0.42334,0.75847 1.09361,1.16417 0.68792,0.38805 1.44639,0.38805 0.77611,0 1.44639,-0.38805 0.67028,-0.38806 1.07597,-1.12889 0.42334,-0.75847 0.42334,-1.76389 z"
         id="path672"
         style="font-weight:500;font-size:66.6667px;font-family:Poppins;-inkscape-font-specification:'Poppins Medium';white-space:pre;fill:#ffffff;stroke-width:2;paint-order:fill markers stroke" /><path
         d="m 92.309314,170.28126 q -1.37583,0 -2.48708,-0.61736 -1.11125,-0.635 -1.74625,-1.76389 -0.635,-1.14653 -0.635,-2.64583 0,-1.48167 0.65263,-2.6282 0.65264,-1.14653 1.78153,-1.76389 1.12889,-0.61736 2.52237,-0.61736 1.39347,0 2.52236,0.61736 1.12889,0.61736 1.78153,1.76389 0.65264,1.14653 0.65264,2.6282 0,1.48167 -0.67028,2.62819 -0.67028,1.14653 -1.83445,1.78153 -1.14652,0.61736 -2.54,0.61736 z m 0,-1.74625 q 0.77611,0 1.44639,-0.37041 0.68792,-0.37042 1.11125,-1.11125 0.42334,-0.74084 0.42334,-1.79917 0,-1.05834 -0.4057,-1.78153 -0.40569,-0.74083 -1.07597,-1.11125 -0.67028,-0.37042 -1.44639,-0.37042 -0.77611,0 -1.44639,0.37042 -0.65264,0.37042 -1.0407,1.11125 -0.38805,0.72319 -0.38805,1.78153 0,1.56986 0.79375,2.43417 0.81139,0.84666 2.02847,0.84666 z"
         id="path674"
         style="font-weight:500;font-size:66.6667px;font-family:Poppins;-inkscape-font-specification:'Poppins Medium';white-space:pre;fill:#ffffff;stroke-width:2;paint-order:fill markers stroke" /><g
         id="path2781"
         style="fill:#ffffff"><path
           style="color:#000000;fill:#ffffff;stroke-width:2;-inkscape-stroke:none;paint-order:fill markers stroke"
           d="M 21.771392,170.12251 V 156.82188"
           id="path112965" /><path
           style="color:#000000;fill:#ffffff;-inkscape-stroke:none;paint-order:fill markers stroke"
           d="m 20.771484,156.82227 v 13.30078 h 2 v -13.30078 z"
           id="path112967" /></g></g></g></svg>
